<svg xmlns="http://www.w3.org/2000/svg" width="48" height="48.818" viewBox="0 0 181 184" shape-rendering="geometricPrecision" text-rendering="geometricPrecision" image-rendering="optimizeQuality" fill-rule="evenodd" clip-rule="evenodd"><path d="M92 2c47 0 85 38 85 86 0 47-38 86-85 86-13 0-25-3-35-8-7 4-19 6-27 8-6 1-17 6-23 2-4-3-1-9-1-12 0-9 8-22 13-30v-1c-8-13-13-29-13-45C6 40 44 2 92 2z" fill="#fefefe"/><path d="M52 170l-6 3c-12 3-23 7-34 10-5 2-9-1-10-5-1-1-2-3-2-5s3-11 4-14c3-7 5-14 7-21l2-6c-5-10-8-22-10-33 0-8 0-17 1-25 2-8 4-16 8-24 7-14 17-26 30-35C55 7 71 1 86 0c5 0 12 0 17 1 20 2 38 11 53 26 15 16 23 35 25 57 0 9-1 19-3 27-2 9-7 19-11 27-14 23-37 37-64 41-5 1-13 1-18 0-12-1-23-4-33-9zM86 8c-13 1-28 6-39 13-12 9-22 20-28 33-4 7-6 13-7 21-1 7-2 16-1 23 1 10 5 21 9 30l2 3-3 9-7 21c-3 7-4 12-4 12 0 1 1 3 2 3s24-8 33-11c5-1 10-3 10-3s1 1 2 1c10 5 20 8 30 9 4 0 13 0 17-1 25-3 45-17 58-37 4-7 8-16 10-25 2-7 3-17 3-25-2-20-9-37-23-51-13-14-29-22-48-25H86zm10 17c10 1 17 3 25 7 11 5 20 13 26 23 5 8 9 16 10 25v18c-4 31-30 54-61 56-11 1-21-1-31-5-3-1-7-4-9-5h-1s-5 1-12 3l-12 4s2-5 4-11 4-11 4-12c0 0-1-1-1-2-11-16-15-37-9-55 1-3 2-6 4-10 5-10 12-18 22-25 12-8 27-12 41-11zM63 51h-2c-2 1-5 5-7 7-3 6-4 14-2 21 2 6 4 11 8 16 5 8 8 12 13 17 7 8 14 12 23 16 8 3 13 5 16 5 2 1 7 0 9-1 4-1 8-4 10-7 1-2 3-8 3-11v-4c-1 0-3-2-8-4-11-6-12-7-14-6l-4 4c-4 5-5 6-6 6s-7-3-10-5c-4-3-6-4-9-7-3-4-7-9-9-13v-1l2-2c2-2 3-4 4-7 1-2 1-3-1-7-1-3-2-6-4-11-1-4-2-6-4-6-1-1-7-1-8 0z" fill="#283566"/></svg>