<svg xmlns="http://www.w3.org/2000/svg" width="48" height="47.81" viewBox="0 0 554 552" shape-rendering="geometricPrecision" text-rendering="geometricPrecision" image-rendering="optimizeQuality" fill-rule="evenodd" clip-rule="evenodd"><defs><style>.fil1{fill:#fefefe}.fil0{fill:#283566}</style></defs><g id="Capa_x0020_1"><ellipse class="fil0" cx="277" cy="276" rx="277" ry="276"/><g id="_1762593703648"><path class="fil1" d="M48 272v9l21 20c9 7 15 12 24 19 16 12 32 23 52 34 113 60 217 44 315-33 12-9 37-29 46-40v-9c-7-11-32-30-46-40-99-74-200-96-315-33-25 13-80 51-97 73z"/><path class="fil0" d="M261 182c-47 9-87 52-78 111 8 46 54 86 111 77 46-8 86-53 77-110-8-46-53-88-110-78z"/><path class="fil1" d="M263 201c-103 21-68 169 28 150 38-7 70-43 61-89-7-37-43-71-89-61z"/><path class="fil0" d="M284 316c9-24-15-10-27-27-16-23 17-50 37-30 8 9 4 12 8 21 7 14 27 1 11-26-17-28-59-26-73 3-17 32 16 70 44 59z"/></g></g></svg>