<svg xmlns="http://www.w3.org/2000/svg" width="48" height="47.81" viewBox="0 0 285 283" shape-rendering="geometricPrecision" text-rendering="geometricPrecision" image-rendering="optimizeQuality" fill-rule="evenodd" clip-rule="evenodd"><defs><style>.fil1{fill:#fefefe}.fil3{fill:#283566}</style></defs><g id="Capa_x0020_1"><g id="_1762593701280"><path d="M136 81c-13 2-22 6-32 14-3 2-5 4-8 7-10 11-16 30-14 46 1 13 6 22 13 32l8 8c4 4 12 8 19 11 21 7 42 3 59-10 8-6 15-17 18-27 6-16 5-34-4-50-10-19-33-33-59-31z" fill="#010101"/><path class="fil1" d="M125 89c-1 2 1 3 0 5-2 1-3 1-5 1-2 1 0 2-2 3-1-1 0-2-1-3-1 0-2-1-4-1s-1 0-2-2c-11 7-20 19-24 32-1 4-2 5 0 6 5 3 3 1 8 1 0 1-1 2 0 2 1 1 3 0 3 1 1 0 4 5 6 5 0 0 6-1 6 5-5 2-3 0-5 5-1 4 2 3 5 10 1 2 1 2 3 3 5 1 3 8 3 12 0 3 2 1 1 4 0 7 3 5 2 9 0 2 0 2 1 4l3 3c1 2 2 4 5 4 2 0 1-1 1-3-1-1-1-3-1-3 0-2-1 0-2-2 0-1 1-2 1-3l-2-2c7-2 5 0 9-6l3-3c2-3 0-4 0-6 0-3 6 0 8-7 0-2 0-4 1-5 1-2 3-2 2-5l-3-3c-3-3-5 1-9-3-1-1-2-1-3-3-2-5-3-2-6-6-1-1-2-2-3-2s-3 1-5 1c-1-1-3-3-6-3-2 2-2 4-6 4-5-1-3-3-3-6-1-1-2-1-3-2l1-3c-3-1-4 2-7 2-1 0-3-2-3-4s4-7 7-7h7v3c4 2 2-1 4-4 2-2 4-2 5-5 1-2 0-1 2-3 2-1 5-3 6-4 4-6 2-2 7-3-1-1 0-1-1-2-1 0-1 1-2-1 2-3 4 2 6 1s0-1 2-2c0 3 0 1-1 3 1 1 3 2 5 1-1-1-2-1-3-2 1-1 2-1 2-3 0-1-1-2-2-3v-4c-2 0-2 2-4 2-1-1-2-6-7-3zM167 125c-3 2-9 4-7 7 0 1 0 0 1 1l-2 4c0 2 0 3 1 4 6 8 5 6 9 5h5c2-1 2-1 4 0 1 1 2 1 4 1-1 7 1 6 3 11 2 3-4 8 1 10-1 7-1 5 1 7 1 2 1 2 1 3 2-3 4-5 7-11 7-14 7-28 3-43-3 0-3-2-6-2-2 1-1 1-2 3-1-1-2-2-3-2s-3 0-4-1v-2c-4-2-8 0-10 0-3 0-4 0-6 1s0 2 0 4zM178 99c1 2 0 1 2 1v2h3c1 1 1 1 1 3l-5-1c-2 4-1 4-3 4 0-1 0-2 1-2-3-3-3 0-4-6-2 0-2 1-2 2 0 2 1 1 2 3-1 1 0 0-2 1 0 2 1 2 3 2-2 1 0 3 0 5-4 0-4-1-7 1 0 3 0 4 3 5 3 0 4-1 6-4 1-2 2-1 4-1l2-2c1 4 4 2 4 5-1 1-1 0-2 1 1 1 2 1 4 0v-2c-1-1-4-2-4-5h3c1 1 1 1 2 3 1 1 0 4 3 4 1-2 0-1 2-3-2-5-11-16-14-18-1 1-2 1-2 2z"/><path d="M129 87c4 2 6 2 7-1 1 0 2 1 3 0 1-3-5-3-7-1-3 1-2 0-3 2z" fill="#f6f6f6"/><circle class="fil3" cx="142" cy="142" r="142"/><path class="fil1" d="M130 21c-27 3-45 12-64 27-7 5-10 9-16 15-21 22-32 59-28 91 2 26 12 45 26 64 5 7 9 10 15 16 9 8 24 17 38 22 42 15 84 6 118-20 16-13 30-33 37-53 12-33 9-69-8-100-21-40-67-67-118-62z"/><path class="fil3" d="M107 36c-1 4 2 7 0 11-2 2-6 0-9 2-3 1 0 4-4 6-2-3-1-4-2-7-2-1-5-1-7-1-5-1-4-1-5-4-22 13-41 38-49 63-2 7-4 9 1 13 9 6 7 1 15 2 1 2-1 3 1 4 2 0 5-1 7 1 2 1 7 9 10 10 1 0 13-1 12 10-9 5-6 0-9 11-3 8 4 6 10 19 1 4 2 4 6 5 10 4 6 16 6 25 1 6 3 3 2 9 0 13 5 8 4 17 0 5 1 5 3 8 1 3 3 5 4 7 3 4 6 8 11 8 3 0 1-3 1-6-1-2 0-6-1-8-1-3-2 0-4-3 0-2 2-4 2-6-2-2-3-1-3-4 13-4 9 0 17-11 2-3 4-5 6-8 3-6 0-7-1-11 2-7 13 0 16-13 1-4 1-9 3-12s5-3 4-9l-6-5c-7-7-10 1-18-6-3-2-4-3-5-7-4-11-7-4-13-11-2-2-4-5-7-5-2 0-5 2-9 2-3-2-6-6-12-6-3 4-3 8-12 8-10-1-6-5-6-12-2-1-4-2-5-4l1-6c-6-1-8 5-15 5-2-1-5-6-5-9 0-4 8-14 14-14 4 0 9 1 14 1 0 1-1 3-1 5 10 3 4-2 8-7s10-5 11-10 0-3 4-6c4-2 10-6 12-9 7-12 4-5 13-7 0-1 0-1-2-2s-1 0-2-2c3-6 7 3 12 0 3-1-1-1 3-2 0 5-1 1-2 5 3 3 5 5 9 2 0-2-2-2-5-3 2-3 4-2 4-6-1-3-3-5-4-6v-8c-5 0-5 4-9 4-2-3-3-13-14-7zM191 109c-6 3-17 7-14 13 2 3 1 0 2 3 0 3-2 4-3 7 0 4 0 6 2 9 13 16 10 11 18 10 3-1 6 0 9-1 5-2 5-2 8 0s5 2 9 2c-2 14 1 13 6 22 3 7-8 17 1 20-2 15-1 11 3 15 2 2 1 2 2 5 4-7 7-9 13-21 14-28 15-57 7-86-7-1-7-6-13-5-2 2-1 3-3 5-3-1-4-2-7-3-2 0-5 0-8-1 0-3 1-2 0-6-7-3-15 2-20 2-4 0-6-1-10 1-5 2-2 4-2 9z"/><path class="fil3" d="M214 57c2 2 0 2 4 2l1 4 5-1c1 2 2 3 2 6l-11-1c-4 7-2 7-6 7 1-2 1-3 2-4-5-6-5 0-7-11-3 0-4 1-5 3 2 4 3 2 5 6-2 1-1 1-4 1 1 5 1 5 6 5-5 3 0 5-1 11-7 0-6-3-13 1 0 7 0 9 5 10 7 1 9-2 13-8 3-5 4-3 9-2 1-3 0-2 2-3 3 7 8 3 9 9-1 1-2 1-4 2 2 3 4 1 7 0 1-2 1-3 1-5-3-2-8-4-8-8 2-1 5-1 6 0 2 1 1 2 4 4 3 3-1 9 6 10 2-5-1-3 4-7-5-10-21-32-28-35-3 1-4 1-4 4zM116 32c8 3 11 4 14-1 3 0 4 1 7-1 0-7-11-5-16-2-4 3-4 1-5 4z"/></g></g></svg>