<svg xmlns="http://www.w3.org/2000/svg" width="48" height="48.004" viewBox="0 0 242 242" shape-rendering="geometricPrecision" text-rendering="geometricPrecision" image-rendering="optimizeQuality" fill-rule="evenodd" clip-rule="evenodd"><g fill-rule="nonzero"><path d="M121 0C54 0 0 54 0 121s54 121 121 121 121-54 121-121S188 0 121 0z" fill="#283566"/><path d="M57 79c-1 3-2 6-2 9v67c0 2 0 5 2 8l42-48-42-36zm80 42l-13 12c-1 0-2 1-3 1s-2-1-3-1l-13-12-42 48c2 1 5 2 8 2h100c3 0 6-1 9-2l-43-48zm-16 3l58-51c-2-1-5-2-8-2H71c-3 0-5 1-8 2l58 51zm67 31c0 2-1 5-2 8l-42-47 41-37c2 3 3 6 3 9v67z" fill="#fefefe"/></g></svg>