<svg xmlns="http://www.w3.org/2000/svg" width="48" height="47.81" viewBox="0 0 434 432" shape-rendering="geometricPrecision" text-rendering="geometricPrecision" image-rendering="optimizeQuality" fill-rule="evenodd" clip-rule="evenodd"><defs><style>.fil0{fill:#283566}.fil1{fill:#fff}</style></defs><g id="Capa_x0020_1"><g id="_1762510524848"><ellipse class="fil0" cx="217" cy="216" rx="217" ry="216"/><path class="fil0" d="M99 380h236V91h-37V50L99 84z"/><path class="fil1" d="M115 364h204V107H115z"/><path class="fil0" d="M125 126v55c0 5 5 13 14 7l48-49c0-1 2-1 2-2 13-12 5-20-5-20-11 0-48-1-54 2-2 2-5 4-5 7zM238 346c0 4 2 8 6 8 10 0 57 2 62-2 1 0 3-3 3-5v-54c0-6-7-15-18-3-8 8-53 49-53 56zM149 215c0 5 4 9 10 9h121c14 0 14-17 0-17H159c-6 0-10 3-10 8z"/><path class="fil1" d="M161 89l121 1V69c-11 0-73 12-90 15-7 1-23 5-31 5z"/><path d="M335 380H99c5 3 113 2 118 2s113 1 118-2z" fill="#c7c7c7"/><path class="fil1" d="M143 161c1-1 23-24 24-26h-24v26zM268 338h23v-25c-6 4-6 8-11 12-6 5-8 6-12 13z"/></g></g></svg>