<svg xmlns="http://www.w3.org/2000/svg" width="48" height="48" viewBox="0 0 117 117" shape-rendering="geometricPrecision" text-rendering="geometricPrecision" image-rendering="optimizeQuality" fill-rule="evenodd" clip-rule="evenodd"><g fill-rule="nonzero"><path d="M117 59c0-33-26-59-58-59C26 0 0 26 0 59c0 29 21 53 49 57V76H35V59h14V46c0-15 9-23 23-23 6 0 13 1 13 1v14h-8c-7 0-9 5-9 10v11h16l-3 17H68v40c28-4 49-28 49-57z" fill="#283566"/><path d="M81 76l3-17H68V48c0-5 2-10 9-10h8V24s-7-1-13-1c-14 0-23 8-23 23v13H35v17h14v40c3 1 6 1 10 1 3 0 6 0 9-1V76h13z" fill="#fefefe"/></g></svg>