<svg xmlns="http://www.w3.org/2000/svg" width="48" height="47.81" viewBox="0 0 200 200" shape-rendering="geometricPrecision" text-rendering="geometricPrecision" image-rendering="optimizeQuality" fill-rule="evenodd" clip-rule="evenodd"><defs><style>.fil1{fill:#fefefe}</style></defs><g id="Capa_x0020_1"><circle cx="100" cy="100" r="100" fill="#283566"/><path class="fil1" d="M26 92c-4 1-8 5-8 10-1 4-1 14 0 18 0 5 3 9 7 11 5 2 11 0 17 1 0 1 2 7 3 10 3 5 7 12 10 16l7 7c8 8 22 16 38 16 18 0 30-8 39-15l6-7c2-3 4-5 6-8 3-5 7-13 8-19 6 0 12 1 16-1s7-6 8-10v-18c0-5-4-8-7-10-2-22-5-39-20-54-12-13-30-20-55-20-33 0-59 13-70 41-4 11-5 20-5 32zm7-1h7c2-8 4-14 8-21 26-48 84-44 106 0 1 3 3 6 4 10s2 7 3 11h6c1-7-3-21-5-27-4-8-8-14-13-19-12-11-27-17-49-17-9 0-20 1-28 4-16 6-27 16-34 32-2 6-5 19-5 27zm14 11c0 5 2 17 2 24 1 3 5 7 7 9 8 6 18 10 31 10 4-10 25-9 25 2 0 8-11 12-20 8-2-1-3-3-5-5-5 0-9 0-14-1-4 0-8-1-12-2 2 4 8 10 11 12 16 13 37 15 53 4 9-6 16-14 21-26 6-13 6-25 5-41l-32-13 3 10c-8-1-20-6-26-10-6-3-16-12-19-17-1 1-1 1-1 3l-3 10c-3 10-6 13-15 18-3 1-8 4-11 5z"/><path class="fil1" d="M76 100c-5 2-6 6-5 10 1 3 5 6 10 5 9-4 4-18-5-15zM120 100c-10 3-5 17 4 15 4-1 7-5 6-10-1-3-5-6-10-5z"/></g></svg>