<svg xmlns="http://www.w3.org/2000/svg" width="48.279" height="48.282" viewBox="0 0 162 162" shape-rendering="geometricPrecision" text-rendering="geometricPrecision" image-rendering="optimizeQuality" fill-rule="evenodd" clip-rule="evenodd"><defs><style>.fil0{fill:#283566}.fil1{fill:#fff}</style></defs><g id="Capa_x0020_1"><path class="fil0" d="M78 1C35 2-1 38 1 84c1 43 37 79 83 77 43-1 79-37 77-83-1-43-37-79-83-77z" stroke="#283566" stroke-width=".966"/><path class="fil1" d="M60 27c-8 1-16 3-21 7-13 10-12 25-12 42v27c1 15 8 27 23 31 9 2 42 1 52 1 18-1 28-9 32-23 2-9 1-42 1-52-1-16-7-28-23-32-9-2-42-1-52-1z"/><path class="fil0" d="M63 37c-13 1-24 3-26 19-1 7 0 35 0 44 0 6 1 13 4 17 8 10 24 8 37 8h22c28-1 25-17 25-41 0-11 2-32-5-39-7-10-22-8-36-8H63z"/><path class="fil1" d="M77 54c-14 2-26 15-23 31 2 14 15 26 31 23 14-2 25-15 23-31-2-14-15-26-31-23z"/><path class="fil0" d="M77 64c-8 1-16 10-13 21 2 8 10 16 21 13 8-1 16-10 13-21-2-8-10-16-21-13z"/><path class="fil1" d="M108 46c-8 2-5 15 4 12 3 0 5-4 4-7s-4-6-8-5z"/></g></svg>