<svg xmlns="http://www.w3.org/2000/svg" width="48" height="47.81" viewBox="0 0 138 137" shape-rendering="geometricPrecision" text-rendering="geometricPrecision" image-rendering="optimizeQuality" fill-rule="evenodd" clip-rule="evenodd"><defs><style>.fil1{fill:#fefefe}</style></defs><g id="Capa_x0020_1"><circle cx="69" cy="69" r="69" fill="#283566"/><path class="fil1" d="M21 72v1c2 3 5 1 10 0 1 2 3 3 4 5 3 2 11 1 16 7 1 0 3-1 4 0 0 2-3 3-4 4-3-3-5-5-9-6-12-4-24 7-19 20 3 11 19 14 27 4 3-4 3-5 3-10 4 0 9-1 13-2 5-1 8-2 10-5 2-4 0-13 9-21 1 1 4 5 5 6-1 2-3 3-4 6-2 8 1 16 8 19 5 3 11 3 15 0 8-5 10-16 5-23-1-2-3-3-5-4-6-4-10-2-16 0-1-1-4-5-5-7 4-3 14-3 15-3 1-1 2-3 1-4-2-2-11 0-15 1-2 1-3 2-4 2l-8-10c-5-6-1-5-12-4-5 1-19-14-23 0-1 6-4 14-2 20-3 0-17 2-19 4zm32-8l6 3c3 1 4-1 5-2 2-2 10-5 14-5-1-2-3-4-4-5-4 0-7 1-10 2-4 0-5-2-9-4-1 2-2 9-2 11zm-8 35c-5 0-3 2-6 3-7 2-9-7-3-9 2-1 2 0 4 0 1 1 2 0 3-1-6-6-16 0-13 8s14 7 15-1zm53-20c2 5 5 4 6 6 2 5-5 7-6 2-1-3-2-4-3-5-5 9 5 16 11 11 7-6 2-17-8-14z"/><path class="fil1" d="M50 25c-10 3-4 18 6 15 3-2 6-6 4-11-1-3-5-6-10-4zM88 59l-1-7c-6 1-7 8 1 7z"/><rect class="fil1" transform="matrix(1.13413 -.17035 .17035 1.13412 57.737 51.723)" width="17.365" height="16.408" rx="2" ry="2"/></g></svg>