<svg id="Capa_1" enable-background="new 0 0 494.986 494.986" height="512" viewBox="0 0 494.986 494.986" width="512" xmlns="http://www.w3.org/2000/svg"><g><g><g><circle cx="172.131" cy="157.865" fill="#def6ea" r="150.364"/></g><g><path d="m189.212 292.148c-83.044 0-150.364-67.321-150.364-150.365 0-38.916 14.784-74.378 39.041-101.078-34.221 27.562-56.123 69.799-56.123 117.16 0 83.044 67.32 150.364 150.364 150.364 44.128 0 83.816-19.009 111.323-49.286-25.783 20.766-58.557 33.205-94.241 33.205z" fill="#9ce3bf"/></g><g><path d="m157.414 157.248v-90.095h30.667v90.095" fill="#6e91ef"/></g><g><circle cx="172.748" cy="157.248" fill="#e8ab4c" r="15.333"/></g><g><path d="m172.748 262.487h299.238v224.999h-299.238z" fill="#fff"/></g><g><path d="m195.323 463.963v-201.477h-22.575v225h299.238v-23.523z" fill="#cad8eb"/></g><g><path d="m172.748 262.487h299.238v44.999h-299.238z" fill="#9eb6f4"/></g><g><path d="m194.748 285.986v-23.5h-22v44.999h299.238v-21.499z" fill="#6e91ef"/></g><g><path d="m201.986 336.819h240.667v120.334h-240.667z" fill="#e08ea2"/></g><g><path d="m223.319 436.485v-99.666h-21.333v120.333h240.667v-20.667z" fill="#d15573"/></g></g><g><path d="m30.5 157.248c0-78.435 63.813-142.248 142.248-142.248 78.436 0 142.248 63.813 142.248 142.248 0 27.905-8.075 54.918-23.351 78.12l12.528 8.248c16.894-25.657 25.823-55.522 25.823-86.368-.001-86.707-70.542-157.248-157.248-157.248s-157.248 70.541-157.248 157.248c0 37.822 13.624 74.375 38.362 102.925 24.485 28.259 58.221 46.91 94.993 52.518l2.262-14.828c-68.763-10.487-120.617-70.938-120.617-140.615z"/><path d="m165.248 29.486h15v15h-15z"/><path d="m285.248 149.486h15v15h-15z"/><path d="m45.248 149.486h15v15h-15z"/><path d="m80.395 64.633h15v15h-15z" transform="matrix(.707 -.707 .707 .707 -25.262 83.284)"/><path d="m80.395 234.338h15v15h-15z" transform="matrix(.707 -.707 .707 .707 -145.257 132.973)"/><path d="m250.101 64.633h15v15h-15z" transform="matrix(.707 -.707 .707 .707 24.444 203.279)"/><path d="m110.289 230.114 52.383-52.383c15.28 7.547 32.532-4.085 32.909-20.568.121-5.313 0-91.731 0-97.511h-45.667v88.493c0 6.354-.602 13.009 2.218 18.912l-52.45 52.45zm70.292-155.462v61.146c-5.016-1.838-10.651-1.838-15.667 0v-61.146zm-7.833 74.762c10.081 0 10.082 15.667 0 15.667-10.073 0-10.095-15.667 0-15.667z"/><path d="m165.248 254.986v240h314.238v-240zm15 225v-165.001h224.008v-15h-224.008v-29.999h284.238v29.999h-15.23v15h15.23v165.001z"/><path d="m419.255 299.985h15v15h-15z"/><path d="m194.486 464.652h255.667v-135.334h-255.667zm15-60.167h45.667v45.167h-45.667zm120.509-15v-45.167h44.824v45.167zm44.824 15v45.167h-44.824v-45.167zm-59.824-15h-44.842v-45.167h44.842zm0 15v45.167h-44.842v-45.167zm74.824 45.167v-45.167h45.334v45.167zm45.334-60.167h-45.334v-45.167h45.334zm-180-45.167v45.167h-45.667v-45.167z"/></g></g></svg>