<svg height="512pt" viewBox="0 -38 512 512" width="512pt" xmlns="http://www.w3.org/2000/svg"><path d="m317.789062 121.230469h-123.578124c-15.949219 0-29.277344 12.140625-30.761719 28.023437l-21.234375 221.058594h227.570312l-21.234375-221.058594c-1.484375-15.882812-14.8125-28.023437-30.761719-28.023437zm0 0" fill="#f43b45"/><path d="m348.550781 149.253906c-1.484375-15.882812-14.8125-28.023437-30.761719-28.023437h-50c15.949219 0 29.277344 12.140625 30.761719 28.023437l21.230469 221.058594h50zm0 0" fill="#cf3735"/><path d="m298.078125 377.433594h-84.15625l12.308594-92.105469h59.539062zm0 0" fill="#ef8229"/><path d="m134.398438 421.625h243.203124c3.476563 0 6.199219-2.996094 5.867188-6.460938l-5.480469-57.042968c-.289062-3.023438-2.828125-5.332032-5.867187-5.332032h-232.242188c-3.039062 0-5.578125 2.308594-5.871094 5.332032l-5.476562 57.042968c-.332031 3.464844 2.390625 6.460938 5.867188 6.460938zm0 0" fill="#676a75"/><path d="m383.46875 415.164062-5.480469-57.042968c-.289062-3.023438-2.828125-5.332032-5.867187-5.332032h-45.207032l6.609376 68.835938h44.078124c3.476563 0 6.199219-2.996094 5.867188-6.460938zm0 0" fill="#454851"/><path d="m318.503906 227.015625-62.503906 50.105469 62.503906 50.105468c4.027344 3.226563 9.996094.359376 9.996094-4.800781v-90.613281c0-5.160156-5.96875-8.023438-9.996094-4.796875zm0 0" fill="#f79f48"/><path d="m193.496094 227.015625 62.503906 50.105469-62.503906 50.105468c-4.027344 3.226563-9.996094.359376-9.996094-4.800781v-90.613281c0-5.160156 5.96875-8.023438 9.996094-4.796875zm0 0" fill="#f79f48"/><path d="m286.933594 277.121094c0 17.082031-13.847656 30.933594-30.933594 30.933594s-30.933594-13.851563-30.933594-30.933594c0-17.085938 13.847656-30.9375 30.933594-30.9375s30.933594 13.851562 30.933594 30.9375zm0 0" fill="#ffe471"/><path d="m256 72.359375c-6.832031 0-12.371094-5.539063-12.371094-12.371094v-40.117187c0-6.832032 5.539063-12.371094 12.371094-12.371094s12.371094 5.539062 12.371094 12.371094v40.117187c0 6.832031-5.539063 12.371094-12.371094 12.371094zm0 0" fill="#f43b45"/><path d="m383.203125 125.046875c-4.734375-4.925781-4.832031-12.664063 0-17.496094l28.367187-28.363281c4.828126-4.832031 12.664063-4.832031 17.496094 0 4.832032 4.828125 4.832032 12.664062 0 17.496094l-28.367187 28.363281c-3.382813 3.53125-13.167969 4.503906-17.496094 0zm0 0" fill="#cf3735"/><path d="m111.300781 125.046875-28.367187-28.363281c-4.832032-4.832032-4.832032-12.667969 0-17.496094 4.832031-4.832031 12.664062-4.832031 17.496094 0l28.367187 28.363281c4.832031 4.832031 4.875 12.710938 0 17.496094-5.78125 5.675781-15.132813 2.363281-17.496094 0zm0 0" fill="#cf3735"/><path d="m492.128906 264.621094h-43.863281c-6.832031 0-12.371094-5.535156-12.371094-12.367188 0-6.832031 5.539063-12.371094 12.371094-12.371094h43.863281c6.832032 0 12.371094 5.539063 12.371094 12.371094 0 6.832032-5.539062 12.367188-12.371094 12.367188zm0 0" fill="#f43b45"/><path d="m63.734375 264.621094h-43.863281c-6.832032 0-12.371094-5.535156-12.371094-12.367188 0-6.832031 5.539062-12.371094 12.371094-12.371094h43.863281c6.832031 0 12.371094 5.539063 12.371094 12.371094 0 6.832032-5.539063 12.367188-12.371094 12.367188zm0 0" fill="#f43b45"/><path d="m390.792969 428.914062h-269.585938c-2.601562 0-4.710937-2.109374-4.710937-4.710937v-18.097656c0-2.601563 2.109375-4.710938 4.710937-4.710938h269.582031c2.605469 0 4.714844 2.109375 4.714844 4.710938v18.097656c0 2.601563-2.109375 4.710937-4.710937 4.710937zm0 0" fill="#525467"/><path d="m390.792969 401.394531h-45.621094v27.519531h45.621094c2.601562 0 4.710937-2.109374 4.710937-4.714843v-18.09375c0-2.601563-2.109375-4.710938-4.710937-4.710938zm0 0" fill="#3c3f4e"/><path d="m390.792969 393.894531h-1.832031l-3.503907-36.492187c-.570312-5.941406-4.898437-10.628906-10.515625-11.820313l-14.140625-147.238281c-.394531-4.121094-4.0625-7.144531-8.183593-6.75-4.121094.398438-7.144532 4.0625-6.75 8.183594 0 0 13.972656 145.476562 13.976562 145.507812-.078125-.84375-54.234375 0-58.492188 0-1.113281-8.28125-2.222656-16.5625-3.335937-24.84375 4.847656 2.835938 8.570313 7.230469 12.992187 10.691406 9.1875 7.183594 24.992188 5.777344 24.992188-8.707031 0 0 0-90.363281 0-90.613281 0-11.214844-13.441406-17.65625-22.1875-10.652344l-33.105469 26.539063c-6.6875-5.625-15.308593-9.015625-24.710937-9.015625-9.398438 0-18.019532 3.390625-24.707032 9.015625 0 0-33.003906-26.457031-33.105468-26.539063-8.816406-7.066406-22.1875-.574218-22.1875 10.652344v90.613281c0 14.703125 16.042968 15.765625 25.21875 8.515625 4.332031-3.421875 8.011718-7.695312 12.765625-10.503906-1.113281 8.285156-2.222657 16.566406-3.332031 24.847656-19.5 0-39 0-58.496094 0l18.761718-195.335937c1.128907-12.097657 11.144532-21.21875 23.296876-21.21875h123.574218c12.152344 0 22.167969 9.121093 23.300782 21.238281l1.445312 15.070312c.398438 4.125 4.074219 7.144532 8.183594 6.75 4.125-.394531 7.144531-4.058593 6.75-8.183593l-1.445313-15.054688c-1.855469-19.851562-18.292969-34.824219-38.230469-34.824219h-123.578124c-19.9375 0-36.375 14.972657-38.230469 34.804688l-18.921875 197.046875c-5.617188 1.191406-9.945313 5.878906-10.515625 11.824219l-3.503907 36.492187h-1.832031c-6.730469 0-12.210937 5.476563-12.210937 12.210938v18.09375c0 6.734375 5.480468 12.210937 12.210937 12.210937h269.585938c6.730469 0 12.210937-5.476562 12.210937-12.210937v-18.09375c0-6.730469-5.480468-12.210938-12.210937-12.210938zm-69.792969-159.269531v84.988281l-25.851562-20.722656-1.730469-12.964844c.664062-2.828125 1.015625-5.777343 1.015625-8.804687 0-6.390625-1.566406-12.417969-4.332032-17.722656zm-65 19.058594c12.921875 0 23.433594 10.515625 23.433594 23.4375 0 2.105468-.277344 4.148437-.800782 6.09375-.046874.148437-.089843.300781-.128906.453125-2.839844 9.746093-11.851562 16.886719-22.503906 16.886719-12.921875 0-23.433594-10.511719-23.433594-23.433594s10.511719-23.4375 23.433594-23.4375zm-65 65.929687v-84.988281l30.902344 24.773438c-2.769532 5.304687-4.335938 11.332031-4.335938 17.722656 0 3.027344.351563 5.976562 1.019532 8.804687l-1.734376 12.964844zm39.996094-13.328125c6.726562 5.777344 15.464844 9.269532 25.003906 9.269532s18.277344-3.492188 25.003906-9.269532l5.210938 39h-60.429688zm157.007812 115.128906h-264.007812v-12.519531h34.59375c4.144531 0 7.5-3.359375 7.5-7.5s-3.355469-7.5-7.5-7.5h-20.480469l3.226563-33.609375h229.328124l3.230469 33.609375h-179.769531c-4.144531 0-7.5 3.359375-7.5 7.5s3.355469 7.5 7.5 7.5h193.878906zm0 0"/><path d="m256 79.859375c10.957031 0 19.871094-8.917969 19.871094-19.875v-40.113281c0-10.957032-8.914063-19.871094-19.871094-19.871094s-19.871094 8.914062-19.871094 19.871094v40.117187c0 10.957031 8.914063 19.871094 19.871094 19.871094zm-4.871094-59.988281c0-2.683594 2.1875-4.871094 4.871094-4.871094s4.871094 2.1875 4.871094 4.871094v40.117187c0 2.683594-2.1875 4.871094-4.871094 4.871094s-4.871094-2.1875-4.871094-4.871094zm0 0"/><path d="m63.734375 232.382812h-43.863281c-10.957032 0-19.871094 8.914063-19.871094 19.871094 0 10.957032 8.914062 19.867188 19.871094 19.867188h43.863281c10.957031 0 19.871094-8.910156 19.871094-19.867188 0-10.957031-8.914063-19.871094-19.871094-19.871094zm0 24.738282h-43.863281c-2.6875 0-4.871094-2.183594-4.871094-4.867188 0-2.6875 2.1875-4.875 4.871094-4.875h43.863281c2.6875 0 4.871094 2.1875 4.871094 4.875 0 2.683594-2.183594 4.867188-4.871094 4.867188zm0 0"/><path d="m492.128906 232.382812h-43.863281c-10.957031 0-19.871094 8.914063-19.871094 19.871094 0 10.957032 8.914063 19.867188 19.871094 19.867188h43.863281c10.957032 0 19.871094-8.910156 19.871094-19.867188 0-10.957031-8.914062-19.871094-19.871094-19.871094zm0 24.738282h-43.863281c-2.6875 0-4.871094-2.183594-4.871094-4.867188 0-2.6875 2.183594-4.875 4.871094-4.875h43.863281c2.6875 0 4.871094 2.1875 4.871094 4.875 0 2.683594-2.1875 4.867188-4.871094 4.867188zm0 0"/><path d="m377.316406 129.558594c7.597656 7.890625 20.203125 8.128906 28.09375.527344l28.894532-27.832032c7.890624-7.601562 8.128906-20.203125.523437-28.097656-7.601563-7.890625-20.203125-8.125-28.09375-.523438l-28.894531 27.828126c-7.890625 7.601562-8.125 20.207031-.523438 28.097656zm39.824219-45.121094c1.933594-1.863281 5.023437-1.808594 6.886719.128906 1.863281 1.933594 1.804687 5.023438-.128906 6.886719l-28.890626 27.828125c-1.9375 1.863281-5.027343 1.808594-6.890624-.128906-1.863282-1.933594-1.804688-5.023438.128906-6.886719zm0 0"/><path d="m134.546875 101.460938-28.890625-27.828126c-7.890625-7.601562-20.496094-7.367187-28.097656.523438-7.601563 7.894531-7.363282 20.496094.527344 28.097656l28.890624 27.832032c7.890626 7.601562 20.496094 7.363281 28.097657-.527344 7.601562-7.890625 7.363281-20.496094-.527344-28.097656zm-10.40625 10.804687c1.933594 1.863281 1.992187 4.953125.128906 6.886719s-4.953125 1.992187-6.886719.128906l-28.894531-27.828125c-1.933593-1.863281-1.992187-4.957031-.128906-6.890625s4.953125-1.992188 6.890625-.128906zm0 0"/></svg>