<svg height="512" viewBox="0 0 60 61" width="512" xmlns="http://www.w3.org/2000/svg"><g id="Page-1" fill="none" fill-rule="evenodd"><g id="033---Traffic" fill-rule="nonzero"><g id="Icons_copy" transform="translate(0 1)"><path id="Shape" d="m29 39c-2.209139 0-4 1.790861-4 4v3h-16c-1.1045695 0-2-.8954305-2-2v-42c0-1.1045695.8954305-2 2-2h16c1.1045695 0 2 .8954305 2 2v33c-1.1045695 0-2 .8954305-2 2s.8954305 2 2 2z" fill="#7f8e94"/><path id="Shape" d="m27 39c-1.1045695 0-2-.8954305-2-2s.8954305-2 2-2v-33c0-1.1045695-.8954305-2-2-2h-3c1.1045695 0 2 .8954305 2 2v33c-1.1045695 0-2 .8954305-2 2s.8954305 2 2 2h2c-2.209139 0-4 1.790861-4 4v3h3v-3c0-2.209139 1.790861-4 4-4z" fill="#545c60"/><circle id="Oval" cx="17" cy="9" fill="#f44335" r="5"/><path id="Shape" d="m17 4c-.509822.00636665-1.0156711.09067483-1.5.25 2.0518727.67441794 3.4387505 2.59013402 3.4387505 4.75 0 2.159866-1.3868778 4.0755821-3.4387505 4.75 1.8848913.6190497 3.9574938.0651104 5.2822128-1.4117638 1.3247189-1.4768743 1.6509349-3.59727819.8313906-5.40403911-.8195443-1.80676093-2.6298019-2.95806329-4.6136034-2.93419709z" fill="#c81e1e"/><circle id="Oval" cx="17" cy="23" fill="#ffdc00" r="5"/><path id="Shape" d="m17 18c-.509822.0063666-1.0156711.0906748-1.5.25 2.0518727.6744179 3.4387505 2.590134 3.4387505 4.75s-1.3868778 4.0755821-3.4387505 4.75c1.8848913.6190497 3.9574938.0651104 5.2822128-1.4117638 1.3247189-1.4768743 1.6509349-3.5972782.8313906-5.4040391s-2.6298019-2.9580633-4.6136034-2.9341971z" fill="#fec108"/><circle id="Oval" cx="17" cy="37" fill="#60a917" r="5"/><path id="Shape" d="m17 32c-.509822.0063666-1.0156711.0906748-1.5.25 2.0518727.6744179 3.4387505 2.590134 3.4387505 4.75s-1.3868778 4.0755821-3.4387505 4.75c1.8848913.6190497 3.9574938.0651104 5.2822128-1.4117638 1.3247189-1.4768743 1.6509349-3.5972782.8313906-5.4040391s-2.6298019-2.9580633-4.6136034-2.9341971z" fill="#549414"/><g fill="#37474f"><path id="Shape" d="m1.13 5.5c1.22636155 2.31259412 1.88773504 4.8826984 1.93 7.5 0 .5522847.44771525 1 1 1h2.94v-10.00000795l-5 .00000795c-.3579753-.00142445-.68940625.18861175-.86901036.49827399-.1796041.30966225-.17998154.69170949-.00098964 1.00172601z"/><path id="Shape" d="m1.13 19.5c1.22636155 2.3125941 1.88773504 4.8826984 1.93 7.5 0 .5522847.44771525 1 1 1h2.94v-10.000008l-5 .000008c-.3579753-.0014245-.68940625.1886117-.86901036.498274-.1796041.3096622-.17998154.6917095-.00098964 1.001726z"/><path id="Shape" d="m32.87 5.5c-1.2263616 2.31259412-1.887735 4.8826984-1.93 7.5 0 .5522847-.4477153 1-1 1h-2.94v-10.00000795l5 .00000795c.3579753-.00142445.6894063.18861175.8690104.49827399.1796041.30966225.1799815.69170949.0009896 1.00172601z"/><path id="Shape" d="m32.87 19.5c-1.2263616 2.3125941-1.887735 4.8826984-1.93 7.5 0 .5522847-.4477153 1-1 1h-2.94v-10.000008l5 .000008c.3579753-.0014245.6894063.1886117.8690104.498274.1796041.3096622.1799815.6917095.0009896 1.001726z"/><path id="Shape" d="m1.13 33.5c1.22636155 2.3125941 1.88773504 4.8826984 1.93 7.5 0 .5522847.44771525 1 1 1h2.94v-10.000008l-5 .000008c-.3579753-.0014245-.68940625.1886117-.86901036.498274-.1796041.3096622-.17998154.6917095-.00098964 1.001726z"/><path id="Shape" d="m14 46h6.08v10c0 1.1045695-.8954305 2-2 2h-2.08c-1.1045695 0-2-.8954305-2-2z"/></g><path id="Shape" d="m59 43v6c0 1.1045695-.8954305 2-2 2h-30c-.7173695.002848-1.3813181-.3787316-1.74-1-.1768942-.3031157-.2668528-.6491101-.26-1v-6c0-2.209139 1.790861-4 4-4h26c2.209139 0 4 1.790861 4 4z" fill="#f44335"/><path id="Shape" d="m55 39h-3c2.209139 0 4 1.790861 4 4v6c0 1.1045695-.8954305 2-2 2h3c1.1045695 0 2-.8954305 2-2v-6c0-2.209139-1.790861-4-4-4z" fill="#c81e1e"/><path id="Shape" d="m32 51v5c0 1.1045695-.8954305 2-2 2h-1c-1.1045695 0-2-.8954305-2-2v-5z" fill="#37474f"/><path id="Shape" d="m57 51v5c0 1.1045695-.8954305 2-2 2h-1c-1.1045695 0-2-.8954305-2-2v-5z" fill="#37474f"/><rect id="Rectangle-path" fill="#ffeb3a" height="4" rx="1" width="7" x="29" y="43"/><rect id="Rectangle-path" fill="#ffeb3a" height="4" rx="1" width="7" x="48" y="43"/><path id="Shape" d="m55 39h-26l1-3.5 2-6.87c.6080803-2.1345911 2.5505528-3.6128249 4.77-3.63h10.46c2.2194472.0171751 4.1619197 1.4954089 4.77 3.63l2 6.87z" fill="#00bcd4"/><path id="Shape" d="m54 35.5-2-6.87c-.6080803-2.1345911-2.5505528-3.6128249-4.77-3.63h-3c2.2194472.0171751 4.1619197 1.4954089 4.77 3.63l2 6.87 1 3.5h3z" fill="#00838f"/><path id="Shape" d="m30 35v.5l-1 3.5h-2c-1.1045695 0-2-.8954305-2-2s.8954305-2 2-2z" fill="#f44335"/><path id="Shape" d="m59 37c0 1.1045695-.8954305 2-2 2h-2l-1-3.5v-.5h3c1.1045695 0 2 .8954305 2 2z" fill="#f44335"/></g><g id="Layer_2"><g fill="#000"><path id="Shape" d="m35 43h-5c-1.1045695 0-2 .8954305-2 2v2c0 1.1045695.8954305 2 2 2h5c1.1045695 0 2-.8954305 2-2v-2c0-1.1045695-.8954305-2-2-2zm-5 4v-2h5v2z"/><path id="Shape" d="m54 43h-5c-1.1045695 0-2 .8954305-2 2v2c0 1.1045695.8954305 2 2 2h5c1.1045695 0 2-.8954305 2-2v-2c0-1.1045695-.8954305-2-2-2zm-5 4v-2h5v2z"/><path id="Shape" d="m44 43h-4c-.5522847 0-1 .4477153-1 1s.4477153 1 1 1h4c.5522847 0 1-.4477153 1-1s-.4477153-1-1-1z"/><path id="Shape" d="m44 47h-4c-.5522847 0-1 .4477153-1 1s.4477153 1 1 1h4c.5522847 0 1-.4477153 1-1s-.4477153-1-1-1z"/></g><path id="Shape" d="m35 33c.265803.0015368.5212812-.1028135.71-.29l2-2c.3921222-.3921222.3921222-1.0278778 0-1.42s-1.0278778-.3921222-1.42 0l-2 2c-.1893127.1877666-.2957983.4433625-.2957983.71s.1064856.5222334.2957983.71c.1887188.1871865.444197.2915368.71.29z" fill="#f5f5f5"/><path id="Shape" d="m36.29 36.71c.1877666.1893127.4433625.2957983.71.2957983s.5222334-.1064856.71-.2957983l6-6c.3921221-.3921222.3921221-1.0278778 0-1.42-.3921222-.3921221-1.0278778-.3921221-1.42 0l-6 6c-.1893127.1877666-.2957983.4433625-.2957983.71s.1064856.5222334.2957983.71z" fill="#f5f5f5"/><path id="Shape" d="m60 38c0-1.6568542-1.3431458-3-3-3h-2.39l-1.61-5.65c-.7366512-2.5754513-3.0912682-4.3505958-5.77-4.35h-10.46c-1.8797343.011771-3.6453071.9038109-4.77 2.41.1033036-2.2383521.6973171-4.4266432 1.74-6.41.3572656-.6188022.3572656-1.3811978 0-2-.3586819-.6212684-1.0226305-1.002848-1.74-1h-4v-2h1.94c1.0815561.0004868 1.9675534-.8589306 2-1.94.0354665-2.4622708.6522216-4.88132146 1.8-7.06.3572656-.61880215.3572656-1.38119785 0-2-.3586819-.62126839-1.0226305-1.00284801-1.74-1h-4v-1c0-1.65685425-1.3431458-3-3-3h-16c-1.65685425 0-3 1.34314575-3 3v1h-4c-.71022212.00428692-1.36489541.38491093-1.72 1-.35726559.61880215-.35726559 1.38119785 0 2 1.149305 2.18168131 1.76610598 4.6043385 1.8 7.07.03244658 1.0810694.91844394 1.9404868 2 1.94h1.92v2h-4c-.70817236.0022111-1.36237467.3787577-1.72.99-.35726559.6188022-.35726559 1.3811978 0 2 1.149305 2.1816813 1.76610598 4.6043385 1.8 7.07.03244658 1.0810694.91844394 1.9404868 2 1.94h1.92v2h-4c-.70817236.0022111-1.36237467.3787577-1.72.99-.35726559.6188022-.35726559 1.3811978 0 2 1.149305 2.1816813 1.76610598 4.6043385 1.8 7.07.03244658 1.0810694.91844394 1.9404868 2 1.94h1.92v1c0 1.6568542 1.34314575 3 3 3h4v9c0 1.6568542 1.3431458 3 3 3h2.08c1.6568542 0 3-1.3431458 3-3v-9.01h2.92v2c.0035644 1.2682549.8042713 2.3972517 2 2.82v4.18c0 1.6568542 1.3431458 3 3 3h1c1.6568542 0 3-1.3431458 3-3v-4h18v4c0 1.6568542 1.3431458 3 3 3h1c1.6568542 0 3-1.3431458 3-3v-4.18c1.1957287-.4227483 1.9964356-1.5517451 2-2.82v-6c-.0052355-1.2922038-.5105521-2.5322007-1.41-3.46.1859717-.1198271.3600931-.2571151.52-.41.5688941-.5628699.8893113-1.329711.89-2.13zm-3-1c.5522847 0 1 .4477153 1 1-.0037358.2687063-.1154643.5246007-.31.71-.1792338.1890372-.4295353.2942364-.69.29h-1.25l-.57-2zm-24.07-7.1c.4904198-1.7145934 2.0566505-2.8974239 3.84-2.9h10.46c1.7833495.0025761 3.3495802 1.1854066 3.84 2.9l2.6 9.1h-23.34zm-3.54 5.1h-1.39v-5h1.94c.3331067.0013849.6607235-.0848301.95-.25zm-2.39 2h1.82l-.57 2h-1.25c-.2687063-.0037358-.5246007-.1154643-.71-.31-.1890372-.1792338-.2942364-.4295353-.29-.69 0-.5522847.4477153-1 1-1zm5-17c-1.2840365 2.4732184-1.9691059 5.213496-2 8h-2v-8zm0-14c-1.2840365 2.47321843-1.9691059 5.213496-2 8h-2v-8zm-27.94 8c-.04868201-2.7914661-.75441735-5.53218583-2.06-8l-.88.49.88-.49h4v8zm0 14c-.03014786-2.7866-.71525986-5.527048-2-8l-.88.49.82-.49h4v8zm0 14c-.03014786-2.7866-.71525986-5.527048-2-8l-.88.49.82-.49h4v8zm15 15c0 .5522847-.4477153 1-1 1h-2.06c-.5522847 0-1-.4477153-1-1v-9h4.08zm1-11h-11.06c-.55228475 0-1-.4477153-1-1v-42c0-.55228475.44771525-1 1-1h16c.5522847 0 1 .44771525 1 1v32.18c-1.1957287.4227483-1.9964356 1.5517451-2 2.82.0006867.7904856.3133382 1.5487553.87 2.11.1661402.1569633.3469703.2976089.54.42-.9018443.9302877-1.40735 2.1743337-1.41 3.47v2zm10.94 11c0 .5522847-.4477153 1-1 1h-1c-.5522847 0-1-.4477153-1-1v-4h3zm25 0c0 .5522847-.4477153 1-1 1h-1c-.5522847 0-1-.4477153-1-1v-4h3zm2-7c0 .5522847-.4477153 1-1 1h-30c-.5522847 0-1-.4477153-1-1v-6c0-1.6568542 1.3431458-3 3-3h26c1.6568542 0 3 1.3431458 3 3z" fill="#000"/><path id="Shape" d="m17 4c-3.3137085 0-6 2.6862915-6 6s2.6862915 6 6 6 6-2.6862915 6-6-2.6862915-6-6-6zm0 10c-2.209139 0-4-1.790861-4-4s1.790861-4 4-4 4 1.790861 4 4c0 1.060866-.4214274 2.0782816-1.1715729 2.8284271s-1.7675611 1.1715729-2.8284271 1.1715729z" fill="#000"/><path id="Shape" d="m17 18c-3.3137085 0-6 2.6862915-6 6s2.6862915 6 6 6 6-2.6862915 6-6-2.6862915-6-6-6zm0 10c-2.209139 0-4-1.790861-4-4s1.790861-4 4-4 4 1.790861 4 4-1.790861 4-4 4z" fill="#000"/><path id="Shape" d="m17 32c-3.3137085 0-6 2.6862915-6 6s2.6862915 6 6 6 6-2.6862915 6-6-2.6862915-6-6-6zm0 10c-2.209139 0-4-1.790861-4-4s1.790861-4 4-4 4 1.790861 4 4-1.790861 4-4 4z" fill="#000"/></g></g></g></svg>