<?xml version="1.0" encoding="iso-8859-1"?>
<!-- Generator: Adobe Illustrator 19.0.0, SVG Export Plug-In . SVG Version: 6.00 Build 0)  -->
<svg version="1.1" id="Capa_1" xmlns="http://www.w3.org/2000/svg" xmlns:xlink="http://www.w3.org/1999/xlink" x="0px" y="0px"
	 viewBox="0 0 512 512" style="enable-background:new 0 0 512 512;" xml:space="preserve">
<path style="fill:#31D2F7;" d="M498.79,94H445.5H298.408v62.873L256,193.02l-42.408-36.147V94H67.5H13.21
	c-3.15,0-5.71,2.56-5.71,5.71v306.58c0,3.15,2.56,5.71,5.71,5.71H67.5h146.092v-45.353L256,330.5l42.408,36.147V412H445.5h53.29
	c3.15,0,5.71-2.56,5.71-5.71V99.71C504.5,96.56,501.94,94,498.79,94z"/>
<path style="fill:#C3DA40;" d="M475.5,142.26v27.48c0,2.91-2.35,5.26-5.26,5.26H437.5v-38h32.74
	C473.15,137,475.5,139.35,475.5,142.26z"/>
<path style="fill:#FFCF59;" d="M470.24,267c2.91,0,5.26,2.35,5.26,5.26v27.48c0,2.91-2.35,5.26-5.26,5.26H437.5v-38L470.24,267
	L470.24,267z"/>
<path style="fill:#C3DA40;" d="M42.76,370c-2.91,0-5.26-2.35-5.26-5.26v-27.48c0-2.91,2.35-5.26,5.26-5.26H81.5v38"/>
<path style="fill:#EA3B38;" d="M81.5,267v38H42.76c-2.91,0-5.26-2.35-5.26-5.26v-27.48c0-2.91,2.35-5.26,5.26-5.26L81.5,267
	L81.5,267z"/>
<path style="fill:#FFCF59;" d="M81.5,202v38H42.76c-2.91,0-5.26-2.35-5.26-5.26v-27.48c0-2.91,2.35-5.26,5.26-5.26L81.5,202
	L81.5,202z"/>
<path style="fill:#FF62A7;" d="M81.5,137v38H42.76c-2.91,0-5.26-2.35-5.26-5.26v-27.48c0-2.91,2.35-5.26,5.26-5.26L81.5,137
	L81.5,137z"/>
<path style="fill:#E0D5C7;" d="M437.53,85H288.62c-17.74,0-32.12,14.38-32.12,32.12v277.76c0,17.74,14.38,32.12,32.12,32.12h148.91
	c4.4,0,7.97-3.57,7.97-7.97V412V305v-38v-92v-38V94v-1.03C445.5,88.57,441.93,85,437.53,85z"/>
<path style="fill:#FFCF59;" d="M350.5,114c-33.69,0-61,27.31-61,61c0,17.41,7.29,33.11,18.99,44.22
	c10.93,10.4,25.73,16.78,42.01,16.78s31.08-6.38,42.01-16.78c11.7-11.11,18.99-26.81,18.99-44.22C411.5,141.31,384.19,114,350.5,114
	z"/>
<g>
	<path style="fill:#FF62A7;" d="M350.5,118c15.46,0,28,12.54,28,28s-12.54,28-28,28s-28-12.54-28-28S335.04,118,350.5,118z"/>
	<path style="fill:#FF62A7;" d="M350.5,236c-16.28,0-31.08-6.38-42.01-16.78l0.01-0.01V217c0-11.6,4.7-22.1,12.3-29.7
		c7.6-7.6,18.1-12.3,29.7-12.3c23.2,0,42,18.8,42,42v2.21l0.01,0.01C381.58,229.62,366.78,236,350.5,236z"/>
</g>
<g>
	<path style="fill:#F44D9D;" d="M344.361,146c0-11.582,7.039-21.525,17.07-25.784c-3.359-1.426-7.052-2.216-10.93-2.216
		c-15.46,0-28,12.54-28,28s12.54,28,28,28c3.878,0,7.572-0.79,10.93-2.216C351.399,167.525,344.361,157.582,344.361,146z"/>
	<path style="fill:#F44D9D;" d="M330.351,219.22l0.01-0.01V217c0-11.6,4.7-22.1,12.3-29.7c5.122-5.122,11.564-8.919,18.77-10.855
		c-3.486-0.937-7.148-1.445-10.93-1.445c-11.6,0-22.1,4.7-29.7,12.3s-12.3,18.1-12.3,29.7v2.21l-0.01,0.01
		c10.93,10.4,25.73,16.78,42.01,16.78c3.733,0,7.382-0.351,10.93-0.993C349.503,232.848,338.775,227.236,330.351,219.22z"/>
</g>
<path style="fill:#E8E1D6;" d="M224.38,85H75.47c-4.4,0-7.97,3.57-7.97,7.97V94v43v38v27v38v27v38v27v38v42v7.03
	c0,4.4,3.57,7.97,7.97,7.97h148.91c17.74,0,32.12-14.38,32.12-32.12V117.12C256.5,99.38,242.12,85,224.38,85z"/>
<g>
	<path style="fill:#C3DA40;" d="M191.76,112c3.72,0,6.74,3.02,6.74,6.74v78.52c0,3.72-3.02,6.74-6.74,6.74h-90.52
		c-3.72,0-6.74-3.02-6.74-6.74v-78.52c0-3.72,3.02-6.74,6.74-6.74H191.76z"/>
</g>
<path d="M101.245,211.5h90.511c7.854,0,14.245-6.39,14.245-14.244v-78.512c0-7.854-6.39-14.244-14.245-14.244h-90.511
	C93.39,104.5,87,110.89,87,118.744v78.512C87,205.11,93.39,211.5,101.245,211.5z M102,119.5h89v77h-89V119.5z"/>
<path d="M112.5,236.5h-15c-4.142,0-7.5,3.357-7.5,7.5s3.358,7.5,7.5,7.5h15c4.142,0,7.5-3.357,7.5-7.5S116.642,236.5,112.5,236.5z"
	/>
<path d="M216.5,236.5h-82c-4.142,0-7.5,3.357-7.5,7.5s3.358,7.5,7.5,7.5h82c4.142,0,7.5-3.357,7.5-7.5S220.642,236.5,216.5,236.5z"
	/>
<path d="M216.5,268.5h-15c-4.142,0-7.5,3.357-7.5,7.5s3.358,7.5,7.5,7.5h15c4.142,0,7.5-3.357,7.5-7.5S220.642,268.5,216.5,268.5z"
	/>
<path d="M187,276c0-4.143-3.358-7.5-7.5-7.5h-82c-4.142,0-7.5,3.357-7.5,7.5s3.358,7.5,7.5,7.5h82
	C183.642,283.5,187,280.143,187,276z"/>
<path d="M97.5,300.5c-4.142,0-7.5,3.357-7.5,7.5s3.358,7.5,7.5,7.5h15c4.142,0,7.5-3.357,7.5-7.5s-3.358-7.5-7.5-7.5H97.5z"/>
<path d="M216.5,300.5h-82c-4.142,0-7.5,3.357-7.5,7.5s3.358,7.5,7.5,7.5h82c4.142,0,7.5-3.357,7.5-7.5S220.642,300.5,216.5,300.5z"
	/>
<path d="M216.5,332.5h-15c-4.142,0-7.5,3.357-7.5,7.5s3.358,7.5,7.5,7.5h15c4.142,0,7.5-3.357,7.5-7.5S220.642,332.5,216.5,332.5z"
	/>
<path d="M179.5,332.5h-82c-4.142,0-7.5,3.357-7.5,7.5s3.358,7.5,7.5,7.5h82c4.142,0,7.5-3.357,7.5-7.5S183.642,332.5,179.5,332.5z"
	/>
<path d="M179.5,364.5h-82c-4.142,0-7.5,3.357-7.5,7.5s3.358,7.5,7.5,7.5h82c4.142,0,7.5-3.357,7.5-7.5S183.642,364.5,179.5,364.5z"
	/>
<path d="M498.785,86.5h-47.221c-2.455-5.304-7.814-9-14.032-9H288.619c-13.206,0-24.916,6.501-32.119,16.465
	c-7.203-9.964-18.912-16.465-32.119-16.465H75.469c-6.218,0-11.577,3.696-14.032,9H13.214C5.928,86.5,0,92.428,0,99.715v306.57
	c0,7.287,5.928,13.215,13.214,13.215h46.809c0.251,8.312,7.074,15,15.445,15h148.913c13.206,0,24.916-6.501,32.119-16.465
	c7.203,9.964,18.913,16.465,32.119,16.465h148.912c8.371,0,15.194-6.688,15.445-15h45.809c7.287,0,13.215-5.928,13.215-13.215
	V99.715C512,92.428,506.072,86.5,498.785,86.5z M453,144.5h15v23h-15V144.5z M453,274.5h15v23h-15V274.5z M60,362.5H45v-23h15V362.5
	z M60,297.5H45v-23h15V297.5z M60,232.5H45v-23h15V232.5z M60,167.5H45v-23h15V167.5z M15,101.5h45v28H42.757
	C35.723,129.5,30,135.223,30,142.257v27.486c0,7.034,5.723,12.757,12.757,12.757H60v12H42.757C35.723,194.5,30,200.223,30,207.257
	v27.486c0,7.034,5.723,12.757,12.757,12.757H60v12H42.757C35.723,259.5,30,265.223,30,272.257v27.486
	c0,7.034,5.723,12.757,12.757,12.757H60v12H42.757C35.723,324.5,30,330.223,30,337.257v27.486c0,7.034,5.723,12.757,12.757,12.757
	H60v27H15V101.5z M75,92.969L75,92.969c0-0.259,0.21-0.469,0.469-0.469h148.913c13.575,0,24.619,11.044,24.619,24.619l0,0l0,0
	v277.762c0,13.575-11.044,24.619-24.619,24.619H75.469c-0.258,0-0.469-0.21-0.469-0.469V92.969 M497,404.5h-44v-30
	c0-4.143-3.357-7.5-7.5-7.5s-7.5,3.357-7.5,7.5v44.531l0,0c0,0.259-0.21,0.469-0.469,0.469H288.619
	c-13.575,0-24.619-11.044-24.619-24.619V117.119l0,0l0,0c0-13.575,11.044-24.619,24.619-24.619h148.912
	c0.259,0,0.469,0.21,0.469,0.469l0,0l0,0l0,0l0,0V344.5l0,0c0,4.143,3.357,7.5,7.5,7.5s7.5-3.357,7.5-7.5v-32h17.243
	c7.034,0,12.757-5.723,12.757-12.757v-27.486c0-7.034-5.723-12.757-12.757-12.757H453v-77h17.243
	c7.034,0,12.757-5.723,12.757-12.757v-27.486c0-7.034-5.723-12.757-12.757-12.757H453v-28h44V404.5z"/>
<path d="M311.5,268.5h-15c-4.143,0-7.5,3.357-7.5,7.5s3.357,7.5,7.5,7.5h15c4.143,0,7.5-3.357,7.5-7.5S315.643,268.5,311.5,268.5z"
	/>
<path d="M415.5,268.5h-82c-4.143,0-7.5,3.357-7.5,7.5s3.357,7.5,7.5,7.5h82c4.143,0,7.5-3.357,7.5-7.5S419.643,268.5,415.5,268.5z"
	/>
<path d="M415.5,300.5h-15c-4.143,0-7.5,3.357-7.5,7.5s3.357,7.5,7.5,7.5h15c4.143,0,7.5-3.357,7.5-7.5S419.643,300.5,415.5,300.5z"
	/>
<path d="M289,308c0,4.143,3.357,7.5,7.5,7.5h82c4.143,0,7.5-3.357,7.5-7.5s-3.357-7.5-7.5-7.5h-82
	C292.357,300.5,289,303.857,289,308z"/>
<path d="M311.5,332.5h-15c-4.143,0-7.5,3.357-7.5,7.5s3.357,7.5,7.5,7.5h15c4.143,0,7.5-3.357,7.5-7.5S315.643,332.5,311.5,332.5z"
	/>
<path d="M415.5,332.5h-82c-4.143,0-7.5,3.357-7.5,7.5s3.357,7.5,7.5,7.5h82c4.143,0,7.5-3.357,7.5-7.5S419.643,332.5,415.5,332.5z"
	/>
<path d="M415.5,364.5h-82c-4.143,0-7.5,3.357-7.5,7.5s3.357,7.5,7.5,7.5h82c4.143,0,7.5-3.357,7.5-7.5S419.643,364.5,415.5,364.5z"
	/>
<path d="M302.891,224.182c0.288,0.325,0.601,0.626,0.94,0.896C316.073,236.495,332.48,243.5,350.5,243.5s34.427-7.005,46.669-18.421
	c0.34-0.271,0.652-0.572,0.94-0.896C410.977,211.722,419,194.285,419,175c0-37.771-30.729-68.5-68.5-68.5S282,137.229,282,175
	C282,194.285,290.023,211.722,302.891,224.182z M316.029,215.869c0.6-18.501,15.827-33.369,34.471-33.369
	s33.871,14.868,34.471,33.369c-9.318,7.872-21.347,12.631-34.471,12.631S325.347,223.741,316.029,215.869z M350.5,125.5
	c11.304,0,20.5,9.196,20.5,20.5s-9.196,20.5-20.5,20.5S330,157.304,330,146S339.196,125.5,350.5,125.5z M404,175
	c0,9.389-2.439,18.216-6.705,25.894c-4.148-12.017-12.795-21.947-23.925-27.772C381.087,166.605,386,156.868,386,146
	c0-4.613-0.894-9.018-2.501-13.064C395.968,142.739,404,157.944,404,175z M317.501,132.936C315.894,136.982,315,141.387,315,146
	c0,10.868,4.913,20.605,12.63,27.122c-11.13,5.825-19.777,15.755-23.925,27.772C299.439,193.216,297,184.389,297,175
	C297,157.944,305.032,142.739,317.501,132.936z"/>
<g>
</g>
<g>
</g>
<g>
</g>
<g>
</g>
<g>
</g>
<g>
</g>
<g>
</g>
<g>
</g>
<g>
</g>
<g>
</g>
<g>
</g>
<g>
</g>
<g>
</g>
<g>
</g>
<g>
</g>
</svg>
