<svg id="Layer_5" enable-background="new 0 0 64 64" height="512" viewBox="0 0 64 64" width="512" xmlns="http://www.w3.org/2000/svg"><g><g><g><path d="m17.19 51.81-7.95 8.82c-.79.87-1.91 1.37-3.09 1.37-1.15 0-2.18-.46-2.93-1.22-.76-.75-1.22-1.78-1.22-2.93 0-1.18.5-2.3 1.37-3.09l8.82-7.95c1.25 2.04 2.96 3.75 5 5z" fill="#969faa"/></g><g><path d="m17.19 51.81c-2.04-1.25-3.75-2.96-5-5-1.39-2.27-2.19-4.95-2.19-7.81 0-7.57 5.61-13.83 12.9-14.85.68-.1 1.39-.15 2.1-.15 5.75 0 10.75 3.24 13.27 8 .65 1.24 1.14 2.58 1.43 4 .2.97.3 1.97.3 3 0 2.53-.63 4.91-1.73 7-.8 1.5-1.84 2.85-3.08 3.99-.56.52-1.15 1-1.79 1.44-2.39 1.62-5.29 2.57-8.4 2.57-2.86 0-5.54-.8-7.81-2.19zm18.39-15.81c-.41-1.49-1.14-2.84-2.09-4-2.02-2.44-5.07-4-8.49-4-.83 0-1.64.09-2.42.27-4.91 1.1-8.58 5.48-8.58 10.73 0 6.08 4.92 11 11 11 2.04 0 3.94-.55 5.58-1.52 1.55-.91 2.86-2.2 3.8-3.73 1.03-1.67 1.62-3.64 1.62-5.75 0-1.04-.14-2.05-.42-3z" fill="#e6e9ed"/></g><g><path d="m29.32 47.49.37.28c.31.23.6.46.89.71-1.64.97-3.54 1.52-5.58 1.52-6.08 0-11-4.92-11-11 0-5.25 3.67-9.63 8.58-10.73-.31 1.21-.5 2.46-.55 3.73-.02.29-.03.57-.03.86 0 1.06.09 2.11.27 3.14.31 1.76.87 3.45 1.66 5.03.55 1.11 1.22 2.15 1.99 3.13.97 1.24 2.11 2.36 3.4 3.33z" fill="#69d6f4"/></g><g><path d="m24.29 24h.01.7c-.71 0-1.42.05-2.1.15-2.95-1.98-4.9-5.33-4.9-9.15 0-6.08 4.92-11 11-11v4c-3.87 0-7 3.13-7 7 0 2.82 1.67 5.25 4.08 6.35-.68.83-1.27 1.72-1.79 2.65z" fill="#dfb28b"/></g><g><path d="m55.71 24c0-.01 0-.01 0-.01-.09-.16-.18-.32-.27-.47-.45-.76-.96-1.48-1.52-2.17 2.41-1.1 4.08-3.53 4.08-6.35 0-3.87-3.13-7-7-7v-4c6.08 0 11 4.92 11 11 0 4.23-2.4 7.9-5.9 9.74-.12-.25-.25-.5-.39-.74z" fill="#dfb28b"/></g><g><path d="m51 4v4c0 1.1-.9 2-2 2h-2-14-2c-1.1 0-2-.9-2-2v-4c0-1.1.9-2 2-2h18c1.1 0 2 .9 2 2z" fill="#d3a06c"/></g><g><path d="m25 28c3.42 0 6.47 1.56 8.49 4h-.01-11.45c.05-1.27.24-2.52.55-3.73.78-.18 1.59-.27 2.42-.27z" fill="#cf9e76"/></g><g><path d="m25 24h30.7.01c.14.24.27.49.39.74 1.1 2.23 1.76 4.7 1.88 7.26h-.01-19.7c-2.52-4.76-7.52-8-13.27-8z" fill="#cf9e76"/></g><g><path d="m35.2 50h12.63c-.45.46-.86.95-1.24 1.45-1.06 1.39-1.93 2.91-2.59 4.55h-8c-.65-1.64-1.53-3.16-2.59-4.55l-.01-.02c.64-.44 1.23-.92 1.79-1.44z" fill="#cf9e76"/></g><g><path d="m55.44 23.52c.09.15.18.31.27.47v.01h-.01-30.7-.7-.01c.52-.93 1.11-1.82 1.79-2.65 1.48-1.83 3.32-3.39 5.45-4.55.91-.49 1.47-1.44 1.47-2.47v-4.33h14v4.33c0 1.03.56 1.98 1.47 2.47 2.13 1.16 3.98 2.72 5.45 4.55.56.69 1.07 1.41 1.52 2.17z" fill="#ecc19c"/></g><g><path d="m35.58 36h-5.58-7.73c-.18-1.03-.27-2.08-.27-3.14 0-.29.01-.57.03-.86h11.45.01c.95 1.16 1.68 2.51 2.09 4z" fill="#ecc19c"/></g><g><path d="m57.97 32h.01c.01.29.02.57.02.86 0 1.06-.09 2.11-.27 3.14h-7.73-10-.3c-.29-1.42-.78-2.76-1.43-4z" fill="#ecc19c"/></g><g><path d="m35.19 49.99c1.24-1.14 2.28-2.49 3.08-3.99h6.73 7.42c-.55.53-1.13 1.03-1.74 1.49l-.37.28c-.9.67-1.73 1.42-2.48 2.23h-12.63z" fill="#ecc19c"/></g><g><path d="m50 36 4.08 8.16c-.5.65-1.06 1.27-1.66 1.84h-7.42z" fill="#ffc729"/></g><g><path d="m40 36 5 10h-6.73c1.1-2.09 1.73-4.47 1.73-7 0-1.03-.1-2.03-.3-3z" fill="#ffc729"/></g><g><path d="m30 36 4.38 8.75c-.94 1.53-2.25 2.82-3.8 3.73-.29-.25-.58-.48-.89-.71l-.37-.28c-1.29-.97-2.43-2.09-3.4-3.33z" fill="#ffc729"/></g><g><path d="m30 36-4.08 8.16c-.77-.98-1.44-2.02-1.99-3.13-.79-1.58-1.35-3.27-1.66-5.03z" fill="#fcd770"/></g><g><path d="m35.58 36c.28.95.42 1.96.42 3 0 2.11-.59 4.08-1.62 5.75l-4.38-8.75z" fill="#fcd770"/></g><g><path d="m50 36-5 10-5-10z" fill="#fcd770"/></g><g><path d="m50 36h7.73c-.52 2.98-1.78 5.79-3.65 8.16z" fill="#fcd770"/></g><g><circle cx="52" cy="28" fill="#fcd770" r="2"/></g><g><circle cx="46" cy="28" fill="#fcd770" r="2"/></g><g><circle cx="40" cy="28" fill="#fcd770" r="2"/></g></g><g><path d="m63 15c0-6.337-4.941-11.529-11.171-11.958-.402-1.183-1.512-2.042-2.829-2.042h-18c-1.317 0-2.427.859-2.829 2.042-6.23.429-11.171 5.621-11.171 11.958 0 3.286 1.356 6.368 3.679 8.609-6.727 1.892-11.679 8.068-11.679 15.391 0 2.75.698 5.34 1.925 7.602l-8.224 7.418c-1.081.975-1.701 2.37-1.701 3.827 0 2.841 2.312 5.153 5.153 5.153 1.455 0 2.851-.62 3.826-1.702l7.418-8.224c2.263 1.228 4.853 1.926 7.603 1.926 2.966 0 5.736-.826 8.12-2.238.782 1.126 1.441 2.334 1.951 3.61l.252.628h9.354l.252-.628c1.241-3.102 3.309-5.8 5.98-7.803l.375-.282c4.831-3.623 7.716-9.392 7.716-15.431 0-2.701-.568-5.317-1.61-7.708 3.481-2.19 5.61-5.995 5.61-10.148zm-16.382 30 3.382-6.764 2.895 5.791c-.283.336-.583.659-.892.973zm-5.675-4.877 2.439 4.877h-3.56c.619-1.524 1.001-3.164 1.121-4.877zm.675-3.123h6.764l-3.382 6.764zm10 0h4.868c-.462 1.854-1.226 3.621-2.257 5.223zm-11.145-2c-.177-.684-.389-1.354-.651-2h17.174c-.006.672-.051 1.339-.134 2zm11.527-4h-6-6-1.165c-.069-.119-.142-.235-.214-.351.415.217.879.351 1.379.351 1.654 0 3-1.346 3-3s-1.346-3-3-3-3 1.346-3 3c0 .174.023.343.051.509-1.224-1.405-2.681-2.599-4.322-3.509h7.271 6 6 3.112c.946 1.854 1.551 3.885 1.779 6zm-13-3c0-.551.448-1 1-1s1 .449 1 1-.448 1-1 1-1-.449-1-1zm-16-13c0-3.038 2.271-5.549 5.203-5.941.43 1.131 1.517 1.941 2.797 1.941h1v3.326c0 .667-.363 1.278-.948 1.597-1.979 1.079-3.738 2.49-5.213 4.16-1.743-1.086-2.839-3.005-2.839-5.083zm3.097 8c1.529-2.203 3.542-4.028 5.911-5.321 1.229-.669 1.992-1.953 1.992-3.353v-3.326h12v3.326c0 1.399.763 2.684 1.991 3.353 2.406 1.313 4.415 3.149 5.923 5.321zm28.063-2.916c-1.461-1.652-3.212-3.07-5.212-4.161-.585-.319-.948-.93-.948-1.597v-3.326h1c1.28 0 2.367-.81 2.797-1.941 2.932.392 5.203 2.903 5.203 5.941 0 2.079-1.096 3.998-2.84 5.084zm-24.16-16.084c0-.551.448-1 1-1h18c.552 0 1 .449 1 1v4c0 .551-.448 1-1 1h-18c-.552 0-1-.449-1-1zm-11 11c0-5.177 3.954-9.446 9-9.949v2.019c-3.94.495-7 3.859-7 7.931 0 2.697 1.38 5.197 3.593 6.664-.323.453-.627.921-.911 1.403-.166.014-.332.025-.496.044-2.621-1.882-4.186-4.882-4.186-8.112zm-10.505 44.958c-.598.662-1.451 1.042-2.342 1.042-1.738 0-3.153-1.415-3.153-3.153 0-.891.379-1.745 1.041-2.341l7.975-7.193c1.018 1.414 2.257 2.654 3.672 3.672zm2.505-20.958c0-7.72 6.28-14 14-14s14 6.28 14 14-6.28 14-14 14-14-6.28-14-14zm32.335 16h-6.67c-.52-1.18-1.155-2.305-1.887-3.363.264-.204.52-.416.77-.637h10.14c-.93 1.236-1.725 2.574-2.353 4zm4.07-6h-9.935c.505-.629.958-1.299 1.365-2h10.835c-.809.61-1.561 1.282-2.265 2zm9.074-25.663c-.327-.577-.684-1.136-1.069-1.676 2.211-1.467 3.59-3.966 3.59-6.661 0-4.072-3.06-7.436-7-7.931v-2.018c5.046.503 9 4.773 9 9.949 0 3.394-1.717 6.496-4.521 8.337z"/><path d="m25 27c-6.617 0-12 5.383-12 12s5.383 12 12 12 12-5.383 12-12-5.383-12-12-12zm10 12c0 1.227-.233 2.398-.639 3.485l-2.743-5.485h3.18c.132.646.202 1.315.202 2zm-11.486-2h4.868l-2.611 5.223c-1.031-1.602-1.796-3.369-2.257-5.223zm-.375-2c-.084-.661-.129-1.328-.134-2h9.977c.465.617.865 1.284 1.178 2zm7.835-4h-7.867c.068-.626.17-1.247.306-1.862.518-.083 1.046-.138 1.587-.138 2.241 0 4.305.75 5.974 2zm-15.974 8c0-4.193 2.597-7.785 6.264-9.269-.169 1.032-.264 2.076-.264 3.125 0 6.036 2.882 11.801 7.707 15.424-1.148.46-2.397.72-3.707.72-5.514 0-10-4.486-10-10zm15.642 8.249c-.117-.092-.231-.19-.35-.279l-.377-.283c-1.043-.782-1.981-1.678-2.81-2.659l2.895-5.792 3.221 6.442c-.696 1.006-1.57 1.878-2.579 2.571z"/><circle cx="50" cy="42" r="1"/><circle cx="30" cy="42" r="1"/><path d="m49 28c0-1.654-1.346-3-3-3s-3 1.346-3 3 1.346 3 3 3 3-1.346 3-3zm-3 1c-.552 0-1-.449-1-1s.448-1 1-1 1 .449 1 1-.448 1-1 1z"/><path d="m55 28c0-1.654-1.346-3-3-3s-3 1.346-3 3 1.346 3 3 3 3-1.346 3-3zm-3 1c-.552 0-1-.449-1-1s.448-1 1-1 1 .449 1 1-.448 1-1 1z"/><circle cx="45" cy="40" r="1"/></g></g></svg>