<svg height="456pt" viewBox="0 0 456 456.008" width="456pt" xmlns="http://www.w3.org/2000/svg"><path d="m435.988281 84.007812h-13.535156c-6.546875 0-12.425781-3.984374-14.855469-10.054687l-19.203125-48c-4.199219-10.511719 3.539063-21.945313 14.859375-21.945313h13.535156c6.542969 0 12.421876 3.984376 14.855469 10.054688l19.199219 48c4.199219 10.511719-3.535156 21.945312-14.855469 21.945312zm0 0" fill="#6c696f"/><path d="m435.988281 88.007812h-13.535156c-8.226563 0-15.511719-4.9375-18.570313-12.574218l-19.199218-48c-2.464844-6.167969-1.710938-13.136719 2.007812-18.640625 3.730469-5.503907 9.921875-8.792969 16.5625-8.792969h13.535156c8.222657 0 15.511719 4.9375 18.566407 12.574219l19.199219 48c2.464843 6.167969 1.714843 13.136719-2.007813 18.640625-3.71875 5.503906-9.910156 8.792968-16.558594 8.792968zm-32.734375-80c-4.050781 0-7.664062 1.921876-9.9375 5.273438-2.265625 3.34375-2.703125 7.421875-1.199218 11.183594l19.199218 48c1.832032 4.582031 6.207032 7.542968 11.144532 7.542968h13.535156c4.046875 0 7.664062-1.917968 9.9375-5.273437 2.261718-3.34375 2.703125-7.421875 1.199218-11.183594l-19.199218-48c-1.832032-4.582031-6.210938-7.542969-11.144532-7.542969zm0 0" fill="#212a41"/><path d="m392.363281 196.007812h-72.726562c-24.097657 0-43.632813-21.488281-43.632813-48v-64c0-35.34375 26.046875-64 58.183594-64h43.640625c32.128906 0 58.175781 28.65625 58.175781 64v64c0 26.511719-19.535156 48-43.640625 48zm0 0" fill="#e0e0e0"/><path d="m392.363281 200.007812h-72.726562c-26.265625 0-47.640625-23.328124-47.640625-52v-64c0-37.496093 27.894531-68 62.183594-68h43.632812c34.289062 0 62.183594 30.503907 62.183594 68v64c.007812 28.671876-21.359375 52-47.632813 52zm-58.175781-176c-29.878906 0-54.183594 26.914063-54.183594 60v64c0 24.265626 17.785156 44 39.640625 44h72.726563c21.855468 0 39.640625-19.734374 39.640625-44v-64c0-33.085937-24.304688-60-54.183594-60zm0 0" fill="#212a41"/><path d="m319.636719 184.007812c-17.441407 0-31.632813-16.152343-31.632813-36v-64c0-28.671874 20.710938-52 46.175782-52 2.207031 0 4 1.792969 4 4 0 2.207032-1.792969 4-4 4-21.046876 0-38.175782 19.734376-38.175782 44v64c0 15.441407 10.601563 28 23.632813 28 2.207031 0 4 1.792969 4 4 0 2.207032-1.792969 4-4 4zm0 0" fill="#fefefe"/><path d="m420.003906 120.007812c-2.207031 0-4-1.792968-4-4v-32c0-24.265624-17.128906-44-38.175781-44-2.207031 0-4-1.792968-4-4 0-2.207031 1.792969-4 4-4 25.464844 0 46.175781 23.328126 46.175781 52v32c0 2.207032-1.792968 4-4 4zm0 0" fill="#c2c2c2"/><path d="m372.003906 44.007812v-8c0-8.839843-7.160156-16-16-16h-21.816406c-32.136719 0-58.183594 28.65625-58.183594 64v8c0 8.839844 7.160156 16 16 16h16c35.34375 0 64-28.65625 64-64zm0 0" fill="#4e4b51"/><path d="m164.003906 196.007812h-64c-26.511718 0-48-21.488281-48-48v-144h1.824219c13.335937 0 25.28125 8.273438 29.960937 20.769532l8.421876 22.46875c4.6875 12.488281 16.632812 20.761718 29.96875 20.761718h19.648437c13.335937 0 25.28125-8.273437 29.960937-20.769531l8.421876-22.46875c4.6875-12.488281 16.632812-20.761719 29.96875-20.761719h1.824218v144c0 26.511719-21.488281 48-48 48zm0 0" fill="#e0c8a4"/><path d="m164.003906 200.007812h-64c-28.671875 0-52-23.328124-52-52v-144c0-2.207031 1.792969-3.9999995 4-3.9999995h1.824219c14.917969 0 28.472656 9.3828125 33.703125 23.3593755l8.433594 22.464843c4.070312 10.871094 14.605468 18.167969 26.214844 18.167969h19.648437c11.609375 0 22.144531-7.304688 26.214844-18.167969l8.433593-22.472656c5.238282-13.976563 18.785157-23.359375 33.703126-23.359375h1.824218c2.207032 0 4 1.792969 4 4v144c0 28.679688-23.328125 52.007812-52 52.007812zm-108-191.910156v139.910156c0 24.265626 19.734375 44 44 44h64c24.265625 0 44-19.734374 44-44v-139.910156c-10.726562.847656-20.222656 7.894532-24.039062 18.078125l-8.433594 22.472657c-5.238281 13.976562-18.785156 23.359374-33.703125 23.359374h-19.648437c-14.917969 0-28.472657-9.382812-33.703126-23.359374l-8.433593-22.464844c-3.816407-10.191406-13.3125-17.238282-24.039063-18.085938zm0 0" fill="#212a41"/><path d="m420.003906 356.007812h-192v-64c0-35.34375 28.65625-64 64-64h64c35.34375 0 64 28.65625 64 64zm0 0" fill="#e0e0e0"/><path d="m420.003906 360.007812h-192c-2.207031 0-4-1.792968-4-4v-64c0-37.496093 30.503906-68 68-68h64c37.496094 0 68 30.503907 68 68v64c0 2.207032-1.792968 4-4 4zm-188-8h184v-60c0-33.085937-26.910156-60-60-60h-64c-33.089844 0-60 26.914063-60 60zm0 0" fill="#212a41"/><path d="m452.003906 356.007812h-192v-64c0-35.34375 28.65625-64 64-64h64c35.34375 0 64 28.65625 64 64zm0 0" fill="#e0e0e0"/><path d="m452.003906 360.007812h-192c-2.207031 0-4-1.792968-4-4v-64c0-37.496093 30.503906-68 68-68h64c37.496094 0 68 30.503907 68 68v64c0 2.207032-1.792968 4-4 4zm-188-8h184v-60c0-33.085937-26.910156-60-60-60h-64c-33.089844 0-60 26.914063-60 60zm0 0" fill="#212a41"/><path d="m412.003906 196.007812h-48c-17.671875 0-32-14.328124-32-32v-16c0-17.671874 14.328125-32 32-32h48c17.671875 0 32 14.328126 32 32v16c0 17.671876-14.328125 32-32 32zm0 0" fill="#e0e0e0"/><path d="m412.003906 200.007812h-48c-19.847656 0-36-16.152343-36-36v-16c0-19.847656 16.152344-36 36-36h48c19.847656 0 36 16.152344 36 36v16c0 19.847657-16.152344 36-36 36zm-48-80c-15.441406 0-28 12.558594-28 28v16c0 15.441407 12.558594 28 28 28h48c15.441406 0 28-12.558593 28-28v-16c0-15.441406-12.558594-28-28-28zm0 0" fill="#212a41"/><path d="m416.003906 132.007812h-8c-6.625 0-12-5.375-12-12s5.375-12 12-12h8c6.625 0 12 5.375 12 12s-5.375 12-12 12zm0 0" fill="#6c696f"/><path d="m416.003906 136.007812h-8c-8.824218 0-16-7.175781-16-16 0-8.824218 7.175782-16 16-16h8c8.824219 0 16 7.175782 16 16 0 8.824219-7.175781 16-16 16zm-8-24c-4.40625 0-8 3.59375-8 8s3.59375 8 8 8h8c4.40625 0 8-3.59375 8-8s-3.59375-8-8-8zm0 0" fill="#212a41"/><path d="m404.003906 228.007812h-112c-4.414062 0-8-3.582031-8-8v-16c0-4.414062 3.585938-8 8-8h112c4.417969 0 8 3.585938 8 8v16c0 4.417969-3.582031 8-8 8zm0 0" fill="#0079a8"/><path d="m404.003906 232.007812h-112c-6.617187 0-12-5.382812-12-12v-16c0-6.617187 5.382813-12 12-12h112c6.617188 0 12 5.382813 12 12v16c0 6.617188-5.382812 12-12 12zm-112-32c-2.207031 0-4 1.792969-4 4v16c0 2.207032 1.792969 4 4 4h112c2.207032 0 4-1.792968 4-4v-16c0-2.207031-1.792968-4-4-4zm0 0" fill="#212a41"/><path d="m396.003906 168.007812h-32c-2.207031 0-4-1.792968-4-4 0-2.207031 1.792969-4 4-4h32c6.617188 0 12-5.382812 12-12v-16c0-2.207031 1.792969-4 4-4 2.207032 0 4 1.792969 4 4v16c0 11.023438-8.976562 20-20 20zm0 0" fill="#212a41"/><path d="m442.996094 168.007812h-14.992188c-11.023437 0-20-8.976562-20-20v-16c0-2.207031 1.792969-4 4-4 2.207032 0 4 1.792969 4 4v16c0 6.617188 5.382813 12 12 12h14.992188c2.207031 0 4 1.792969 4 4 0 2.207032-1.792969 4-4 4zm0 0" fill="#212a41"/><path d="m196.003906 356.007812h-192v-64c0-35.34375 28.65625-64 64-64h64c35.34375 0 64 28.65625 64 64zm0 0" fill="#c2aa86"/><path d="m196.003906 360.007812h-192c-2.207031 0-3.99999975-1.792968-3.99999975-4v-64c0-37.496093 30.50390575-68 67.99999975-68h64c37.496094 0 68 30.503907 68 68v64c0 2.207032-1.792968 4-4 4zm-188-8h184v-60c0-33.085937-26.910156-60-60-60h-64c-33.089844 0-60 26.914063-60 60zm0 0" fill="#212a41"/><path d="m228.003906 356.007812h-192v-64c0-35.34375 28.65625-64 64-64h64c35.34375 0 64 28.65625 64 64zm0 0" fill="#e0c8a4"/><path d="m228.003906 360.007812h-192c-2.207031 0-4-1.792968-4-4v-64c0-37.496093 30.503906-68 68-68h64c37.496094 0 68 30.503907 68 68v64c0 2.207032-1.792968 4-4 4zm-188-8h184v-60c0-33.085937-26.910156-60-60-60h-64c-33.089844 0-60 26.914063-60 60zm0 0" fill="#212a41"/><path d="m100.003906 184.007812c-19.847656 0-36-16.152343-36-36v-119.40625c0-2.210937 1.792969-4 4-4 2.207032 0 4 1.789063 4 4v119.40625c0 15.441407 12.558594 28 28 28 2.207032 0 4 1.792969 4 4 0 2.207032-1.792968 4-4 4zm0 0" fill="#fee6c2"/><path d="m164.003906 184.007812c-2.207031 0-4-1.792968-4-4 0-2.207031 1.792969-4 4-4 15.441406 0 28-12.558593 28-28v-119.40625c0-2.210937 1.792969-4 4-4 2.207032 0 4 1.789063 4 4v119.40625c0 19.847657-16.152344 36-36 36zm0 0" fill="#c2aa86"/><path d="m436.003906 344.007812c-2.207031 0-4-1.792968-4-4v-48c0-24.265624-19.734375-44-44-44-2.207031 0-4-1.792968-4-4 0-2.207031 1.792969-4 4-4 28.671875 0 52 23.328126 52 52v48c0 2.207032-1.792968 4-4 4zm0 0" fill="#c2c2c2"/><path d="m276.003906 344.007812c-2.207031 0-4-1.792968-4-4v-48c0-28.671874 23.328125-52 52-52 2.207032 0 4 1.792969 4 4 0 2.207032-1.792968 4-4 4-24.265625 0-44 19.734376-44 44v48c0 2.207032-1.792968 4-4 4zm0 0" fill="#fefefe"/><path d="m52.003906 344.007812c-2.207031 0-4-1.792968-4-4v-48c0-28.671874 23.328125-52 52-52 2.207032 0 4 1.792969 4 4 0 2.207032-1.792968 4-4 4-24.265625 0-44 19.734376-44 44v48c0 2.207032-1.792968 4-4 4zm0 0" fill="#fee6c2"/><path d="m188.003906 228.007812h-112c-4.414062 0-8-3.582031-8-8v-16c0-4.414062 3.585938-8 8-8h112c4.417969 0 8 3.585938 8 8v16c0 4.417969-3.582031 8-8 8zm0 0" fill="#d32e5e"/><path d="m188.003906 232.007812h-112c-6.617187 0-12-5.382812-12-12v-16c0-6.617187 5.382813-12 12-12h112c6.617188 0 12 5.382813 12 12v16c0 6.617188-5.382812 12-12 12zm-112-32c-2.207031 0-4 1.792969-4 4v16c0 2.207032 1.792969 4 4 4h112c2.207032 0 4-1.792968 4-4v-16c0-2.207031-1.792968-4-4-4zm0 0" fill="#212a41"/><path d="m156.003906 228.007812c0 8.835938-7.164062 16-16 16-8.835937 0-16-7.164062-16-16 0-8.835937 7.164063-16 16-16 8.835938 0 16 7.164063 16 16zm0 0" fill="#e0e0e0"/><g fill="#212a41"><path d="m140.003906 248.007812c-11.023437 0-20-8.976562-20-20 0-11.023437 8.976563-20 20-20 11.023438 0 20 8.976563 20 20 0 11.023438-8.976562 20-20 20zm0-32c-6.617187 0-12 5.382813-12 12 0 6.617188 5.382813 12 12 12 6.617188 0 12-5.382812 12-12 0-6.617187-5.382812-12-12-12zm0 0"/><path d="m68.003906 144.007812h-48c-2.207031 0-4-1.792968-4-4 0-2.207031 1.792969-4 4-4h48c2.207032 0 4 1.792969 4 4 0 2.207032-1.792968 4-4 4zm0 0"/><path d="m68.003906 128.007812c-.496094 0-1-.085937-1.488281-.289062l-40-16c-2.046875-.824219-3.046875-3.152344-2.230469-5.199219.824219-2.054687 3.160156-3.046875 5.199219-2.230469l40 16c2.046875.824219 3.046875 3.152344 2.230469 5.199219-.621094 1.566407-2.125 2.519531-3.710938 2.519531zm0 0"/><path d="m252.003906 144.007812h-48c-2.207031 0-4-1.792968-4-4 0-2.207031 1.792969-4 4-4h48c2.207032 0 4 1.792969 4 4 0 2.207032-1.792968 4-4 4zm0 0"/><path d="m204.003906 128.007812c-1.582031 0-3.089844-.953124-3.710937-2.511718-.824219-2.046875.175781-4.375 2.230469-5.199219l40-16c2.03125-.816406 4.375.167969 5.199218 2.230469.824219 2.046875-.175781 4.375-2.230468 5.199218l-40 16c-.488282.195313-.992188.28125-1.488282.28125zm0 0"/></g><path d="m372.003906 228.007812c0 8.835938-7.164062 16-16 16-8.835937 0-16-7.164062-16-16 0-8.835937 7.164063-16 16-16 8.835938 0 16 7.164063 16 16zm0 0" fill="#e0e0e0"/><path d="m356.003906 248.007812c-11.023437 0-20-8.976562-20-20 0-11.023437 8.976563-20 20-20 11.023438 0 20 8.976563 20 20 0 11.023438-8.976562 20-20 20zm0-32c-6.617187 0-12 5.382813-12 12 0 6.617188 5.382813 12 12 12 6.617188 0 12-5.382812 12-12 0-6.617187-5.382812-12-12-12zm0 0" fill="#212a41"/><path d="m308.003906 112.007812h-16c-11.023437 0-20-8.976562-20-20v-8c0-37.496093 27.894532-68 62.175782-68h21.824218c11.023438 0 20 8.976563 20 20v8c0 37.496094-30.503906 68-68 68zm26.175782-88c-29.871094 0-54.175782 26.914063-54.175782 60v8c0 6.617188 5.382813 12 12 12h16c33.089844 0 60-26.910156 60-60v-8c0-6.617187-5.382812-12-12-12zm0 0" fill="#212a41"/><path d="m276.019531 84.007812h13.535157c6.546874 0 12.425781-3.984374 14.855468-10.054687l19.203125-48c4.199219-10.511719-3.539062-21.945313-14.855469-21.945313h-13.539062c-6.542969 0-12.421875 3.984376-14.855469 10.054688l-19.199219 48c-4.199218 10.511719 3.535157 21.945312 14.855469 21.945312zm0 0" fill="#4e4b51"/><path d="m289.554688 88.007812h-13.535157c-6.648437 0-12.832031-3.289062-16.558593-8.792968-3.722657-5.503906-4.472657-12.472656-2.007813-18.640625l19.199219-48c3.046875-7.628907 10.34375-12.5664065 18.566406-12.5664065h13.539062c6.644532 0 12.832032 3.2890625 16.558594 8.7929685 3.71875 5.503907 4.472656 12.472657 2.007813 18.640625l-19.199219 48c-3.058594 7.628906-10.34375 12.566406-18.570312 12.566406zm5.664062-80c-4.933594 0-9.3125 2.960938-11.144531 7.542969l-19.199219 48c-1.503906 3.761719-1.0625 7.832031 1.199219 11.183594 2.273437 3.355469 5.890625 5.273437 9.9375 5.273437h13.535156c4.9375 0 9.3125-2.960937 11.144531-7.542968l19.199219-48c1.503906-3.761719 1.066406-7.832032-1.199219-11.183594-2.269531-3.351562-5.886718-5.273438-9.933594-5.273438zm0 0" fill="#212a41"/><path d="m276.011719 72.007812c-.496094 0-1-.085937-1.488281-.289062-2.054688-.824219-3.046876-3.152344-2.230469-5.199219l19.207031-48c.824219-2.054687 3.160156-3.046875 5.199219-2.230469 2.058593.824219 3.046875 3.152344 2.234375 5.199219l-19.210938 48c-.621094 1.566407-2.125 2.519531-3.710937 2.519531zm0 0" fill="#6c696f"/><path d="m148.003906 168.007812h-8c-2.207031 0-4-1.792968-4-4 0-2.207031 1.792969-4 4-4h8c6.617188 0 12-5.382812 12-12v-8c0-2.207031 1.792969-4 4-4 2.207032 0 4 1.792969 4 4v8c0 11.023438-8.976562 20-20 20zm0 0" fill="#212a41"/><path d="m186.996094 168.007812h-6.992188c-11.023437 0-20-8.976562-20-20v-8c0-2.207031 1.792969-4 4-4 2.207032 0 4 1.792969 4 4v8c0 6.617188 5.382813 12 12 12h6.992188c2.207031 0 4 1.792969 4 4 0 2.207032-1.792969 4-4 4zm0 0" fill="#212a41"/><path d="m172.003906 140.007812h-16c-4.414062 0-8-3.582031-8-8v-8c0-4.414062 3.585938-8 8-8h16c4.417969 0 8 3.585938 8 8v8c0 4.417969-3.582031 8-8 8zm0 0" fill="#6c696f"/><path d="m172.003906 144.007812h-16c-6.617187 0-12-5.382812-12-12v-8c0-6.617187 5.382813-12 12-12h16c6.617188 0 12 5.382813 12 12v8c0 6.617188-5.382812 12-12 12zm-16-24c-2.207031 0-4 1.792969-4 4v8c0 2.207032 1.792969 4 4 4h16c2.207032 0 4-1.792968 4-4v-8c0-2.207031-1.792968-4-4-4zm0 0" fill="#212a41"/><path d="m312.003906 356.007812c0 53.019532-42.980468 96-96 96-53.019531 0-96-42.980468-96-96 0-53.019531 42.980469-96 96-96 53.019532 0 96 42.980469 96 96zm0 0" fill="#db8e11"/><path d="m216.003906 456.007812c-55.144531 0-100-44.855468-100-100 0-55.144531 44.855469-100 100-100 55.144532 0 100 44.855469 100 100 0 55.144532-44.855468 100-100 100zm0-192c-50.726562 0-92 41.273438-92 92 0 50.726563 41.273438 92 92 92 50.726563 0 92-41.273437 92-92 0-50.726562-41.273437-92-92-92zm0 0" fill="#212a41"/><path d="m336.003906 356.007812c0 53.019532-42.980468 96-96 96-53.019531 0-96-42.980468-96-96 0-53.019531 42.980469-96 96-96 53.019532 0 96 42.980469 96 96zm0 0" fill="#f9ac2f"/><path d="m240.003906 456.007812c-55.144531 0-100-44.855468-100-100 0-55.144531 44.855469-100 100-100 55.144532 0 100 44.855469 100 100 0 55.144532-44.855468 100-100 100zm0-192c-50.726562 0-92 41.273438-92 92 0 50.726563 41.273438 92 92 92 50.726563 0 92-41.273437 92-92 0-50.726562-41.273437-92-92-92zm0 0" fill="#212a41"/><path d="m240.003906 440.007812c-2.207031 0-4-1.792968-4-4 0-2.207031 1.792969-4 4-4 41.902344 0 76-34.097656 76-76 0-2.207031 1.792969-4 4-4 2.207032 0 4 1.792969 4 4 0 46.320313-37.679687 84-84 84zm0 0" fill="#db8e11"/><path d="m160.003906 360.007812c-2.207031 0-4-1.792968-4-4 0-46.320312 37.679688-84 84-84 2.207032 0 4 1.792969 4 4 0 2.207032-1.792968 4-4 4-41.902344 0-76 34.097657-76 76 0 2.207032-1.792968 4-4 4zm0 0" fill="#ffca4d"/><path d="m288.003906 340.007812h-32v-32h-32v32h-32v32h32v32h32v-32h32zm0 0" fill="#0079a8"/><path d="m256.003906 408.007812h-32c-2.207031 0-4-1.792968-4-4v-28h-28c-2.207031 0-4-1.792968-4-4v-32c0-2.207031 1.792969-4 4-4h28v-28c0-2.207031 1.792969-4 4-4h32c2.207032 0 4 1.792969 4 4v28h28c2.207032 0 4 1.792969 4 4v32c0 2.207032-1.792968 4-4 4h-28v28c0 2.207032-1.792968 4-4 4zm-28-8h24v-28c0-2.207031 1.792969-4 4-4h28v-24h-28c-2.207031 0-4-1.792968-4-4v-28h-24v28c0 2.207032-1.792968 4-4 4h-28v24h28c2.207032 0 4 1.792969 4 4zm0 0" fill="#212a41"/></svg>