<svg height="512pt" viewBox="-36 0 512 512" width="512pt" xmlns="http://www.w3.org/2000/svg"><path d="m314.5 504.5h-224c-16.570312 0-30-13.429688-30-30v-437c0-16.570312 13.429688-30 30-30h224c16.570312 0 30 13.429688 30 30v437c0 16.570312-13.429688 30-30 30zm0 0" fill="#b5fcff"/><path d="m314.5 7.5h-30c16.570312 0 30 13.429688 30 30v437c0 16.570312-13.429688 30-30 30h30c16.570312 0 30-13.429688 30-30v-437c0-16.570312-13.429688-30-30-30zm0 0" fill="#71f6fc"/><path d="m60.5 428.5h284v30h-284zm0 0" fill="#3be3eb"/><path d="m314.5 428.5h30v30h-30zm0 0" fill="#2bc3d4"/><path d="m314.5 504.5h-224c-16.570312 0-30-13.429688-30-30v-16h284v16c0 16.570312-13.429688 30-30 30zm0 0" fill="#50536e"/><path d="m314.5 458.5v16c0 16.570312-13.429688 30-30 30h30c16.570312 0 30-13.429688 30-30v-16zm0 0" fill="#484b63"/><path d="m90.5 7.5h224c16.570312 0 30 13.429688 30 30v16h-284v-16c0-16.570312 13.429688-30 30-30zm0 0" fill="#50536e"/><path d="m314.5 7.5h-30c16.570312 0 30 13.429688 30 30v16h30v-16c0-16.570312-13.429688-30-30-30zm0 0" fill="#484b63"/><path d="m394.28125 280h-89.632812c-20.554688 0-37.214844 16.648438-37.214844 37.1875v44.292969s-36.367188 10.722656-40.804688-14.007813c-.183594-1.039062-1.664062-1.066406-1.886718-.035156-2.804688 12.890625-5.007813 45.289062 42.691406 48.117188v36.257812c0 20.539062 16.664062 37.1875 37.21875 37.1875h89.628906c20.554688 0 37.21875-16.648438 37.21875-37.1875v-114.625c0-20.539062-16.664062-37.1875-37.21875-37.1875zm0 0" fill="#ffd659"/><path d="m237.429688 361.480469v-.082031c-5.246094-2.28125-9.46875-6.496094-10.800782-13.925782-.1875-1.039062-1.664062-1.066406-1.886718-.035156-.875 4.019531-1.691407 9.9375-.953126 16.265625 7.523438-.421875 13.640626-2.222656 13.640626-2.222656zm0 0" fill="#ffbd54"/><path d="m394.28125 280h-30c20.554688 0 37.21875 16.648438 37.21875 37.1875v114.625c0 20.539062-16.664062 37.1875-37.21875 37.1875h30c20.554688 0 37.21875-16.648438 37.21875-37.1875v-114.625c0-20.539062-16.664062-37.1875-37.21875-37.1875zm0 0" fill="#ffbd54"/><path d="m397.5 143c0 9.367188-9.804688 17.324219-12.113281 25.964844-2.390625 8.941406 2.050781 20.71875-2.476563 28.546875-4.59375 7.9375-17.058594 9.953125-23.5 16.398437-6.445312 6.441406-8.460937 18.90625-16.398437 23.5-7.828125 4.53125-19.605469.085938-28.546875 2.476563-8.640625 2.308593-16.597656 12.113281-25.964844 12.113281s-17.324219-9.804688-25.964844-12.113281c-8.941406-2.390625-20.71875 2.050781-28.546875-2.476563-7.9375-4.59375-9.953125-17.058594-16.398437-23.5-6.441406-6.445312-18.90625-8.460937-23.5-16.398437-4.53125-7.828125-.085938-19.605469-2.476563-28.546875-2.308593-8.640625-12.113281-16.597656-12.113281-25.964844s9.804688-17.324219 12.113281-25.964844c2.390625-8.941406-2.050781-20.71875 2.476563-28.546875 4.59375-7.9375 17.058594-9.953125 23.5-16.398437 6.445312-6.441406 8.460937-18.90625 16.398437-23.5 7.828125-4.53125 19.605469-.085938 28.546875-2.476563 8.640625-2.308593 16.597656-12.113281 25.964844-12.113281s17.324219 9.804688 25.964844 12.113281c8.941406 2.390625 20.71875-2.050781 28.546875 2.476563 7.9375 4.59375 9.953125 17.058594 16.398437 23.5 6.441406 6.445312 18.90625 8.460937 23.5 16.398437 4.53125 7.828125.085938 19.605469 2.476563 28.546875 2.308593 8.640625 12.113281 16.597656 12.113281 25.964844zm0 0" fill="#ff2c5c"/><path d="m217.730469 309.019531-111.390625 57.011719-54.363282-54.359375 57.015626-111.394531c.691406-1.347656 2.496093-1.632813 3.566406-.5625l105.734375 105.738281c1.070312 1.070313.785156 2.875-.5625 3.566406zm0 0" fill="#ffd659"/><path d="m63.25 398.601562-2.828125 2.828126c-12.105469 12.105468-31.734375 12.105468-43.84375 0-12.105469-12.105469-12.105469-31.734376 0-43.839844l2.828125-2.828125zm0 0" fill="#ff2c5c"/><path d="m132.652344 429.605469c-5.855469 5.859375-15.355469 5.859375-21.210938 0l-61.519531-61.515625 21.214844-21.214844 61.515625 61.519531c5.859375 5.855469 5.859375 15.355469 0 21.210938zm0 0" fill="#50536e"/><path d="m108.992188 200.277344-12.964844 25.332031 96.371094 96.375 25.332031-12.964844c1.347656-.691406 1.632812-2.496093.5625-3.566406l-105.734375-105.738281c-1.070313-1.070313-2.875-.785156-3.566406.5625zm0 0" fill="#ffbd54"/><path d="m108.484375 368.921875-36.515625 36.515625c-1.632812 1.632812-4.277344 1.632812-5.910156 0l-53.488282-53.488281c-1.632812-1.632813-1.632812-4.277344 0-5.90625l36.519532-36.519531c1.628906-1.632813 4.273437-1.632813 5.90625 0l53.488281 53.488281c1.632813 1.632812 1.632813 4.277343 0 5.910156zm0 0" fill="#4fc6f5"/><path d="m49.089844 309.523438-21.214844 21.210937c1.632812-1.628906 4.277344-1.628906 5.90625 0l53.492188 53.492187c1.628906 1.628907 1.628906 4.277344 0 5.90625l21.210937-21.210937c1.632813-1.632813 1.632813-4.277344 0-5.910156l-53.488281-53.488281c-1.632813-1.632813-4.277344-1.632813-5.90625 0zm0 0" fill="#3bb3e3"/><path d="m271.5 108c0 8.835938-7.164062 16-16 16s-16-7.164062-16-16 7.164062-16 16-16 16 7.164062 16 16zm0 0" fill="#b5fcff"/><path d="m339.5 175c0 8.835938-7.164062 16-16 16s-16-7.164062-16-16 7.164062-16 16-16 16 7.164062 16 16zm0 0" fill="#b5fcff"/><path d="m222.5 489c4.140625 0 7.5-3.355469 7.5-7.5s-3.359375-7.5-7.5-7.5h-40c-4.140625 0-7.5 3.355469-7.5 7.5s3.359375 7.5 7.5 7.5zm0 0"/><path d="m431.5 407.378906c4.140625 0 7.5-3.355468 7.5-7.5v-82.691406c0-24.640625-20.0625-44.6875-44.71875-44.6875h-42.28125v-32.835938c3.257812-3.539062 5.4375-7.871093 7.429688-11.839843 1.730468-3.441407 3.367187-6.695313 5.285156-8.609375 1.914062-1.917969 5.167968-3.550782 8.609375-5.28125 5.785156-2.90625 12.339843-6.199219 16.078125-12.664063 3.691406-6.378906 3.285156-13.652343 2.929687-20.070312-.21875-3.902344-.421875-7.585938.300781-10.296875.667969-2.5 2.628907-5.476563 4.703126-8.625 3.59375-5.460938 7.664062-11.644532 7.664062-19.273438 0-7.632812-4.070312-13.816406-7.664062-19.277344-2.074219-3.148437-4.035157-6.125-4.703126-8.625-.726562-2.710937-.519531-6.394531-.300781-10.296874.355469-6.414063.761719-13.691407-2.929687-20.070313-3.742188-6.464844-10.292969-9.757813-16.078125-12.664063-3.441407-1.726562-6.695313-3.363281-8.609375-5.277343-1.917969-1.917969-3.554688-5.171875-5.28125-8.613281-1.996094-3.96875-4.171875-8.300782-7.433594-11.839844v-8.839844c0-20.679688-16.820312-37.5-37.5-37.5h-224c-20.679688 0-37.5 16.820312-37.5 37.5v26.5c0 4.144531 3.359375 7.5 7.5 7.5s7.5-3.355469 7.5-7.5v-3h148.125c-1.226562 2.335938-2.460938 4.410156-3.835938 5.789062-1.917968 1.914063-5.167968 3.550782-8.613281 5.28125-5.785156 2.902344-12.335937 6.199219-16.078125 12.664063-3.691406 6.378906-3.285156 13.652344-2.925781 20.070313.214844 3.898437.421875 7.582031-.304687 10.292968-.667969 2.503906-2.628907 5.476563-4.703126 8.628906-3.589843 5.457032-7.664062 11.640626-7.664062 19.273438 0 7.628906 4.070312 13.816406 7.664062 19.273438 2.074219 3.148437 4.035157 6.125 4.703126 8.625.726562 2.710937.519531 6.398437.304687 10.296874-.359375 6.417969-.765625 13.691407 2.925781 20.070313 3.742188 6.464844 10.296875 9.757813 16.078125 12.664063 3.445313 1.730468 6.695313 3.363281 8.613281 5.28125 1.914063 1.914062 3.550782 5.167968 5.28125 8.609374 2.90625 5.785157 6.199219 12.339844 12.664063 16.082032 6.378906 3.6875 13.652344 3.28125 20.070313 2.925781 3.902343-.21875 7.585937-.421875 10.292968.300781 2.503906.671875 5.480469 2.628906 8.628906 4.703125 5.457032 3.59375 11.640626 7.664063 19.273438 7.664063s13.816406-4.070313 19.273438-7.664063c3.152343-2.074219 6.125-4.03125 8.628906-4.699219 2.707031-.730468 6.394531-.523437 10.292968-.304687 3.289063.183594 6.800782.375 10.304688.023437v25.648438h-32.351562c-24.65625 0-44.714844 20.046875-44.714844 44.6875v38.292969c-6.390625 1.089843-15.628906 1.640625-21.1875-1.8125-2.601563-1.609375-4.105469-4-4.734375-7.519531-.710938-3.960938-4.148438-6.894532-8.171875-6.96875-4.03125-.105469-7.570313 2.726562-8.429688 6.660156-1.882812 8.65625-3.523437 25.1875 6.660156 38.617187 7.421876 9.789063 19.464844 15.804688 35.863282 17.925781v29.429688c0 6.863281 1.558594 13.371094 4.335937 19.1875h-108.644531c-4.140625 0-7.5 3.355469-7.5 7.5s3.359375 7.5 7.5 7.5h120.269531c7.78125 6.546875 17.8125 10.5 28.753907 10.5h32.257812c-1.015625 11.472656-10.675781 20.5-22.40625 20.5h-224c-12.40625 0-22.5-10.09375-22.5-22.5v-8.5h55.625c4.140625 0 7.5-3.355469 7.5-7.5s-3.359375-7.5-7.5-7.5h-55.625v-36.886719c.335938.03125.671875.050781 1.011719.050781 3.121093 0 6.054687-1.214843 8.257812-3.421874l2.347657-2.347657 26.523437 26.523438c4.386719 4.382812 10.148437 6.570312 15.90625 6.570312 5.761719 0 11.523437-2.191406 15.90625-6.574219 8.773437-8.773437 8.773437-23.054687 0-31.828124l-26.515625-26.507813 2.351562-2.355469c1.445313-1.441406 2.453126-3.199218 2.984376-5.109375l104.367187-53.414062c2.761719-1.410157 4.703125-4.082031 5.183594-7.148438.484375-3.066406-.535157-6.210937-2.730469-8.402343l-105.730469-105.734376c-2.195312-2.191406-5.34375-3.214843-8.40625-2.730468s-5.734375 2.421875-7.144531 5.179687l-34.3125 67.042969v-168.238281c0-4.144531-3.359375-7.5-7.5-7.5s-7.5 3.355469-7.5 7.5v197.546875l-4.109375 8.027344c-1.871094.523437-3.636719 1.511718-5.105469 2.976562l-36.519531 36.519531c-4.511719 4.515625-4.542969 11.839844-.101563 16.402344-4.648437 6.480469-7.164062 14.226563-7.164062 22.371094 0 10.296875 4.007812 19.964843 11.277344 27.222656 7.273437 7.273437 16.941406 11.28125 27.222656 11.28125 5.054688 0 9.957031-.976563 14.5-2.820313v59.304688c0 20.679688 16.820312 37.5 37.5 37.5h224c20.007812 0 36.402344-15.75 37.445312-35.5h42.335938c24.660156 0 44.71875-20.046875 44.71875-44.6875 0-4.140625-3.359375-7.5-7.5-7.5s-7.5 3.359375-7.5 7.5c0 16.371094-13.332031 29.6875-29.71875 29.6875h-89.632812c-16.386719 0-29.714844-13.316406-29.714844-29.6875v-36.257812c0-3.972657-3.09375-7.253907-7.058594-7.488282-15.453125-.914062-26.171875-5.179687-31.851562-12.671875-1.949219-2.570312-3.207032-5.402343-3.976563-8.273437 14.492187 7.980468 35.140625 2.253906 37.503906 1.554687 3.191407-.9375 5.378907-3.867187 5.378907-7.191406v-44.296875c0-16.371094 13.332031-29.6875 29.71875-29.6875h89.632812c16.386719 0 29.714844 13.316406 29.714844 29.6875v82.691406c.003906 4.144532 3.363281 7.5 7.503906 7.5zm-363.5-369.878906c0-12.40625 10.09375-22.5 22.5-22.5h224c12.40625 0 22.5 10.09375 22.5 22.5v1.644531c-3.503906-.347656-7.015625-.15625-10.304688.023438-3.898437.21875-7.585937.425781-10.292968-.300781-2.503906-.667969-5.476563-2.628907-8.628906-4.703126-5.457032-3.59375-11.640626-7.664062-19.273438-7.664062s-13.816406 4.070312-19.273438 7.664062c-3.152343 2.074219-6.125 4.035157-8.628906 4.703126-2.710937.726562-6.394531.519531-10.292968.300781-6.417969-.351563-13.691407-.761719-20.070313 2.929687-1.882813 1.089844-3.492187 2.421875-4.90625 3.902344h-157.328125zm259.527344 194.355469c-4.671875-.261719-9.972656-.558594-15 .785156-4.847656 1.296875-8.992188 4.023437-13 6.664063-4.058594 2.671874-7.890625 5.195312-11.027344 5.195312s-6.96875-2.523438-11.023438-5.195312c-4.007812-2.640626-8.15625-5.367188-13.003906-6.664063-2.933594-.785156-5.964844-1.007813-8.90625-1.007813-2.097656 0-4.148437.113282-6.09375.222657-4.742187.261719-9.222656.511719-11.726562-.933594-2.585938-1.5-4.617188-5.546875-6.773438-9.832031-2.1875-4.355469-4.449218-8.859375-8.078125-12.484375-3.625-3.625-8.128906-5.890625-12.484375-8.078125-4.285156-2.152344-8.332031-4.1875-9.828125-6.769532-1.449219-2.503906-1.199219-6.984374-.933593-11.726562.257812-4.675781.554687-9.976562-.789063-15.003906-1.296875-4.847656-4.023437-8.992188-6.664063-13-2.671874-4.058594-5.195312-7.890625-5.195312-11.027344s2.523438-6.96875 5.195312-11.023438c2.636719-4.007812 5.367188-8.15625 6.664063-13.003906 1.34375-5.023437 1.046875-10.324218.789063-15-.265626-4.742187-.515626-9.222656.933593-11.726562 1.496094-2.585938 5.542969-4.621094 9.828125-6.773438 4.355469-2.1875 8.859375-4.449218 12.484375-8.078125 3.628907-3.625 5.890625-8.128906 8.078125-12.484375 2.15625-4.285156 4.1875-8.332031 6.773438-9.828125 2.503906-1.449219 6.984375-1.195312 11.726562-.933593 4.675782.261718 9.976563.554687 15-.789063 4.847656-1.296875 8.996094-4.023437 13.003906-6.664063 4.054688-2.671874 7.886719-5.191406 11.023438-5.191406s6.96875 2.519532 11.027344 5.191406c4.007812 2.640626 8.152344 5.367188 13 6.664063 5.027344 1.34375 10.328125 1.050781 15.003906.789063 4.738281-.265626 9.222656-.515626 11.722656.933593 2.585938 1.496094 4.621094 5.546875 6.773438 9.828125 2.1875 4.355469 4.453125 8.859375 8.078125 12.488282 3.625 3.625 8.128906 5.886718 12.484375 8.074218 4.285156 2.15625 8.332031 4.1875 9.832031 6.773438 1.445313 2.503906 1.195313 6.980468.933594 11.726562-.261719 4.675782-.554688 9.976563.789062 15 1.292969 4.847656 4.023438 8.996094 6.664063 13.003906 2.671875 4.054688 5.195312 7.886719 5.195312 11.023438s-2.523437 6.96875-5.195312 11.027344c-2.640625 4.007812-5.371094 8.152344-6.664063 13-1.34375 5.027344-1.050781 10.328125-.789062 15.003906.261719 4.742188.511719 9.222656-.933594 11.726562-1.496094 2.585938-5.546875 4.617188-9.832031 6.769532-4.355469 2.191406-8.859375 4.453125-12.484375 8.078125s-5.886719 8.128906-8.078125 12.484375c-2.152344 4.285156-4.1875 8.332031-6.773438 9.828125-2.503906 1.449219-6.980468 1.199219-11.726562.9375zm-200.179688 181.835937c2.925782 2.925782 2.925782 7.6875 0 10.613282-2.921875 2.921874-7.683594 2.921874-10.605468 0l-26.519532-26.519532 10.605469-10.601562zm-14.976562-203.554687 95.5 95.503906-96.675782 49.476563-48.304687-48.304688zm-60.328125 107.039062 48.792969 48.792969-31.820313 31.816406-48.792969-48.789062zm-30.164063 78.945313c-4.4375-4.429688-6.878906-10.328125-6.878906-16.609375 0-4.109375 1.050781-8.050781 3.003906-11.519531l32.011719 32.007812c-3.480469 1.960938-7.417969 3.011719-11.515625 3.011719-6.273438 0-12.175781-2.445313-16.621094-6.890625zm0 0"/><path d="m401 365.253906c0-4.140625-3.359375-7.5-7.5-7.5h-90c-4.140625 0-7.5 3.359375-7.5 7.5 0 4.144532 3.359375 7.5 7.5 7.5h90c4.140625 0 7.5-3.355468 7.5-7.5zm0 0"/><path d="m303.5 387.5c-4.140625 0-7.5 3.355469-7.5 7.5s3.359375 7.5 7.5 7.5h38.996094c4.140625 0 7.5-3.355469 7.5-7.5s-3.359375-7.5-7.5-7.5zm0 0"/><path d="m393.5 327.5h-90c-4.140625 0-7.5 3.355469-7.5 7.5s3.359375 7.5 7.5 7.5h90c4.140625 0 7.5-3.355469 7.5-7.5s-3.359375-7.5-7.5-7.5zm0 0"/><path d="m255.5 131.5c12.957031 0 23.5-10.542969 23.5-23.5s-10.542969-23.5-23.5-23.5-23.5 10.542969-23.5 23.5 10.542969 23.5 23.5 23.5zm0-32c4.6875 0 8.5 3.8125 8.5 8.5s-3.8125 8.5-8.5 8.5-8.5-3.8125-8.5-8.5 3.8125-8.5 8.5-8.5zm0 0"/><path d="m347 175c0-12.957031-10.542969-23.5-23.5-23.5s-23.5 10.542969-23.5 23.5 10.542969 23.5 23.5 23.5 23.5-10.542969 23.5-23.5zm-23.5 8.5c-4.6875 0-8.5-3.8125-8.5-8.5s3.8125-8.5 8.5-8.5 8.5 3.8125 8.5 8.5-3.8125 8.5-8.5 8.5zm0 0"/><path d="m340.804688 90.195312c-2.929688-2.925781-7.679688-2.925781-10.609376 0l-92 92c-2.925781 2.929688-2.925781 7.679688 0 10.609376 1.464844 1.460937 3.386719 2.195312 5.304688 2.195312s3.839844-.734375 5.304688-2.195312l92-92c2.925781-2.929688 2.925781-7.679688 0-10.609376zm0 0"/></svg>