<svg id="Capa_1" enable-background="new 0 0 512.044 512.044" height="512" viewBox="0 0 512.044 512.044" width="512" xmlns="http://www.w3.org/2000/svg"><g><g><path d="m418.174 178.09h.003l-10.256-30h-262.044-20l10.895 102.835-10.895 113.195c0 8.224 6.666 14.89 14.89 14.89h.002 19.998 53.6 115.32 73.598.002.009c.282 0 .542-.015.789-.04 7.85-.418 14.091-6.896 14.091-14.85v-79.6c-.001 0-.002 0-.003 0v-106.43z" fill="#b3e59f"/><path d="m412.243 83.027v-30.9c0-3.216-.264-6.438-.968-9.576-3.912-17.44-18.203-31.039-36.337-33.716-3.367-.497-6.733-.766-10.078-.817-24.87-.373-46.351 15.847-61.111 36.268l-2.256 42.367z" fill="#df646e"/><path d="m134.984 84.584-.719-35.617c1.367-20.576 35.379-38.936 35.379-38.936 4.912-.725 9.292-2.162 14.138-1.944 16.661.748 32.586 6.913 45.368 17.439 4.998 4.116 9.516 8.899 13.409 14.285l-5.192 49.241z" fill="#df646e"/><path d="m243.559 41.052-6.192 47.997-23-1.27v-28.3c0-13.39 5.69-25.47 14.78-33.95 5 4.111 10.522 10.133 14.412 15.523z" fill="#dc4955"/><path d="m373.717 8.67c-3.35-.45-6.7-.66-10.02-.66-17.898 0-35.137 6.276-48.789 17.521-5.054 4.163-9.955 9.409-13.795 14.714l.385 46.406 28.19-.9v-26.271c0-7.542-1.811-14.665-5.014-20.967-.534-1.051-.391-2.331.369-3.232 12.427-14.737 29.857-24.145 48.674-26.611z" fill="#dc4955"/><path d="m309.688 83.087v-23.606c0-14.615-11.848-26.463-26.464-26.463h-22.396c-14.615 0-26.463 11.848-26.463 26.463v23.606z" fill="#df646e"/><path d="m316.388 66.09v17l-45.446 5.96-43.277-5.96v-17z" fill="#dc4955"/><path d="m412.243 83.03-110.746 3.62v-3.56h8.19v-17h102.556z" fill="#dc4955"/><path d="m329.687 66.09v19.66l-20-2.66v-17z" fill="#d82f3c"/><path d="m234.367 83.09v-17h-77.264c-3.47 0-6.216-2.934-5.987-6.396l.691-10.434c1.37-20.58 16.91-37.41 37.31-40.42.41-.06.81-.12 1.22-.17-3.29-.44-6.62-.66-9.98-.66-3.72 0-7.48.27-11.24.83-18.7 2.759-33.316 17.131-36.678 35.359-.463 2.508-.632 5.062-.653 7.612l-.249 31.279 105.829 5.96.63-5.96z" fill="#dc4955"/><path d="m214.367 87.78v-21.69h20v17z" fill="#d82f3c"/><path d="m425.813 83.087c8.223 0 14.889 6.666 14.889 14.889v45.228c0 8.223-13.325 11.639-21.548 11.639l-298.213.691c-8.223 0-14.889-6.666-14.889-14.889l1.953-40.699c0-8.223 2.012-16.859 10.235-16.859h96.126l51.851 11.71 63.468-11.71z" fill="#ccf49f"/><path d="m145.877 348.55v-167.46c0-1.657 1.343-3 3-3h269.3v-30h-272.3-20v30 105.69 80.34z" fill="#95d6a4"/><path d="m329.687 134.09v-51h-19.999l-41.555 10.941-33.768-10.941h-19.999v51c0 2.209-1.791 4-4 4h-83.02c-2.209 0-4-1.791-4-4v-51h-5.11c-8.22 0-14.89 6.66-14.89 14.89v45.22c0 8.23 6.67 14.89 14.89 14.89h96.13 115.32 96.13c8.22 0 14.89-6.66 14.89-14.89v-5.11h-107.02c-2.208 0-3.999-1.791-3.999-4z" fill="#b3e59f"/><path d="m329.687 83.09h-115.32" fill="none"/><path d="m234.367 83.09v75l15.256 136.069-6.064 84.851h56.106l-5.447-55.915 15.469-165.005v-75z" fill="#df646e"/><path d="m309.688 338.35-75.321-26.977v-153.283h75.321z" fill="#dc4955"/><path d="m309.687 337.83v41.18h-75.32v-81.32c24.55 12.27 67.38 35.71 70.92 37.65 1.48.79 2.93 1.63 4.33 2.53z" fill="#dc4955"/><path d="m306.424 369.063 17.79-16.368 80.136-43.548c15.614-8.473 34.347-5.488 46.599 6.089 3.04 2.872-5.242 15.688-5.242 15.688l16.606 1.381-162.649 95.64z" fill="#f2d1a5"/><path d="m462.317 332.31-3.59-6.91c-2.1-3.89-4.74-7.29-7.78-10.16-4.26 1.2-8.41 2.87-12.34 5l-100.027 54.786c-1.694.928-3.841.051-4.341-1.815-1.973-7.374-5.358-14.359-10.023-20.511l-16.97 9.22-3.708 32.299-.002.001-3.87 33.73 33.12-19.47c.001-.002.001-.004.002-.006z" fill="#f2bb88"/><path d="m502.107 353.156c-10.543-19.549-34.888-26.823-54.376-16.248l-143.65 78.679.52-8.918c3.41-6.529 12.966-13.219 12.64-20.083-.654-13.745-8.368-26.788-21.423-33.626 0 0-63.892-35.033-81.485-42.683-15.168-6.596-35.801-8.767-63.662-8.767-22.241 0-40.778 6.271-54.143 13.681-9.388 5.205-11.469 19.864-15.245 24.415l-4.755 114.802 101.862 34.985c38.492 15.23 80.29 14.891 116.681-4.851l195.573-105.532c9.633-5.227 16.651-15.802 11.64-25.518-.058-.113-.117-.224-.177-.336z" fill="#f2d1a5"/><path d="m502.287 353.49c-57.38 31.1-215.33 116.51-215.33 116.51-17.49 9.49-37.26 14.51-57.15 14.51 0 0 0 0-.01 0-15.15 0-29.98-2.83-44.08-8.41l-84.876-35.275c-2.612-1.085-4.314-3.636-4.314-6.464v-119.171c-9.39 5.21-16.22 10.97-20 15.52l-31.16 66.025 31.16 57.675 101.83 40.29c38.49 15.23 81.74 12.63 118.13-7.12l197.52-107.15c9.64-5.23 13.29-17.23 8.28-26.94z" fill="#f2bb88"/><path d="m20.176 487.138 38.681 1.242c5.523 0 10-4.477 10-10l7.67-7.6v-159.27c0-5.523-4.477-10-10-10h-39l-6.543 4.952c-5.523 0-10 4.477-10 10l-.809 160.676c.001 5.522 4.478 10 10.001 10z" fill="#5f6c75"/><path d="m76.527 470.78v10c0 5.523-4.477 10-10 10h-49c-5.523 0-10-4.477-10-10v-169.27c0-5.523 4.477-10 10-10h10v161.27c0 4.418 3.582 8 8 8z" fill="#4e5a61"/><path d="m315.027 401.71c-.63 1.8-1.39 3.57-2.3 5.31-3.57 6.84-10.53 10.75-17.74 10.75-3.13 0-6.3-.74-9.26-2.29l-86.827-45.482c-6.7-3.51-8.955-12.006-4.876-18.376 3.606-5.631 10.918-7.571 16.842-4.469l88.251 46.226c8.86 4.65 19.21-2.98 17.38-12.76 1.38 6.881.97 14.161-1.47 21.091z" fill="#f2bb88"/></g><g><path d="m508.709 349.446c-6.06-11.248-16.124-19.445-28.339-23.084-4.491-1.338-9.075-1.994-13.633-1.992l-1.353-2.609c-.019-.035-.037-.069-.056-.104-6.059-11.247-16.122-19.445-28.337-23.083-3.731-1.112-7.526-1.751-11.317-1.937v-131.392h.139c12.346 0 22.39-10.051 22.39-22.404v-45.274c0-12.354-10.044-22.404-22.39-22.404h-4.303l-1.783-26.861c-1.591-23.951-19.966-43.88-43.691-47.385-28.878-4.265-57.461 6.57-76.225 28.471-4.909-2.762-10.564-4.345-16.585-4.345h-22.396c-6.021 0-11.676 1.583-16.585 4.344-18.763-21.9-47.339-32.74-76.225-28.47-4.402.65-8.698 1.867-12.769 3.618-3.806 1.636-5.563 6.048-3.927 9.853 1.635 3.805 6.044 5.563 9.853 3.926 2.878-1.237 5.917-2.098 9.035-2.559 23.853-3.525 47.473 5.491 62.893 23.681-3.923 5.543-6.238 12.302-6.238 19.596v16.13h-89.289l1.717-25.866c.224-3.367.908-6.673 2.035-9.827 1.393-3.901-.64-8.192-4.541-9.585-3.899-1.394-8.192.639-9.586 4.541-1.592 4.458-2.56 9.127-2.875 13.877l-1.783 26.86h-4.303c-12.346 0-22.39 10.051-22.39 22.404v45.273c0 12.354 10.044 22.404 22.39 22.404h.139v132.842c-14.29 3.912-25.869 9.977-34.353 15.928v-2.709c0-9.649-7.851-17.5-17.5-17.5h-49c-9.649 0-17.5 7.851-17.5 17.5v81.64c0 4.142 3.357 7.5 7.5 7.5s7.5-3.358 7.5-7.5v-81.64c0-1.378 1.121-2.5 2.5-2.5h49c1.379 0 2.5 1.122 2.5 2.5v19.204.018 150.237c0 1.378-1.121 2.5-2.5 2.5h-49c-1.379 0-2.5-1.122-2.5-2.5v-52.602c0-4.142-3.357-7.5-7.5-7.5s-7.5 3.358-7.5 7.5v52.602c0 9.649 7.851 17.5 17.5 17.5h49c9.649 0 17.5-7.851 17.5-17.5v-15.369l91.57 36.269c17.52 6.939 35.912 10.38 54.248 10.38 24.223 0 48.347-6.006 70.226-17.888l74.918-40.684c3.64-1.977 4.988-6.53 3.012-10.17-1.978-3.64-6.531-4.988-10.17-3.012l-74.918 40.684c-34.525 18.75-75.272 21.208-111.792 6.743l-97.094-38.457v-115.855c10.129-10.541 34.602-24.599 66.644-24.599 29.004 0 47.715 2.515 60.669 8.153 4.216 1.835 11.241 5.329 19.439 9.555.016.008.032.016.047.024 25.01 12.893 60.906 32.582 61.384 32.845.042.023.083.045.126.068 15.889 8.331 22.051 28.07 13.737 44.002-1.55 2.971-4.16 5.157-7.351 6.156-3.178.997-6.557.692-9.51-.856l-99.295-52.064c-3.666-1.924-8.201-.509-10.125 3.159-1.923 3.668-.509 8.202 3.16 10.125l99.295 52.064c3.993 2.094 8.338 3.155 12.72 3.155 2.758 0 5.53-.42 8.237-1.268 1.888-.591 3.68-1.377 5.363-2.329l142.743-78.264c7.646-4.153 16.444-5.074 24.777-2.592 8.366 2.492 15.261 8.111 19.416 15.823 3.309 6.14 1.031 13.834-5.075 17.151l-92.253 50.098c-3.64 1.977-4.988 6.53-3.012 10.17 1.359 2.503 3.937 3.922 6.598 3.922 1.209 0 2.436-.293 3.572-.911l92.254-50.099c13.35-7.25 18.339-24.049 11.121-37.446zm-75.506-251.879v45.273c0 4.083-3.315 7.404-7.39 7.404h-40.049c-4.143 0-7.5 3.358-7.5 7.5s3.357 7.5 7.5 7.5h24.91v133.1c-3.401.957-6.724 2.289-9.907 4.017l-83.579 45.464v-182.58h33.576c4.143 0 7.5-3.358 7.5-7.5s-3.357-7.5-7.5-7.5h-33.576v-60.082h108.625c4.074 0 7.39 3.322 7.39 7.404zm-191.337-7.404h60.322v60.082h-60.322zm131.976-74.407c16.789 2.48 29.792 16.586 30.918 33.54l1.717 25.867h-89.29v-16.13c0-7.294-2.315-14.053-6.238-19.596 15.419-18.191 39.034-27.208 62.893-23.681zm-90.617 24.287c10.456 0 18.963 8.519 18.963 18.99v16.13h-60.322v-16.13c0-10.471 8.507-18.99 18.963-18.99zm-172.374 102.797v-45.273c0-4.083 3.315-7.404 7.39-7.404h108.625v60.082h-108.625c-4.075 0-7.39-3.322-7.39-7.405zm39.819 150.965c-6.055 0-11.818.441-17.291 1.208v-129.768h93.486v142.474c-3.834-1.898-7.105-3.454-9.54-4.514-15.135-6.589-35.07-9.4-66.655-9.4zm91.196 21.557v-150.117h60.322v182.58c-.919-.566-1.853-1.116-2.822-1.625-2.387-1.31-33.258-18.236-57.5-30.838zm82.292 80.579c1.764-10.979-.406-22.174-5.898-31.621l89.672-48.779c3.466-1.882 7.171-3.094 10.96-3.632.074-.007.147-.019.22-.029 4.5-.607 9.116-.266 13.598 1.069 7.731 2.303 14.202 7.281 18.419 14.109-2.389.842-4.731 1.871-7.003 3.105z"/><path d="m39.499 127.48 16.923.365c.056.001.11.002.165.002 4.066 0 7.407-3.252 7.495-7.338.09-4.141-3.195-7.57-7.336-7.66l-16.923-.365c-4.177-.107-7.571 3.196-7.66 7.336-.089 4.142 3.196 7.571 7.336 7.66z"/><path d="m46.866 88.25 14.474 8.787c1.216.738 2.559 1.09 3.885 1.09 2.534 0 5.007-1.285 6.418-3.609 2.149-3.541 1.021-8.154-2.52-10.303l-14.474-8.787c-3.539-2.15-8.153-1.021-10.303 2.519-2.149 3.541-1.021 8.154 2.52 10.303z"/><path d="m60.33 143.842-14.838 8.154c-3.63 1.995-4.955 6.555-2.961 10.185 1.365 2.484 3.932 3.89 6.58 3.89 1.221 0 2.459-.299 3.605-.929l14.838-8.154c3.63-1.995 4.955-6.555 2.961-10.185-1.995-3.63-6.553-4.958-10.185-2.961z"/><path d="m479.971 120.509c.088 4.086 3.428 7.338 7.495 7.338.055 0 .109 0 .165-.002l16.923-.365c4.141-.089 7.426-3.519 7.336-7.66s-3.497-7.451-7.66-7.336l-16.923.365c-4.141.09-7.426 3.519-7.336 7.66z"/><path d="m478.83 98.127c1.326 0 2.669-.352 3.885-1.09l14.474-8.787c3.541-2.149 4.669-6.762 2.52-10.303-2.15-3.542-6.764-4.669-10.303-2.519l-14.474 8.787c-3.541 2.149-4.669 6.762-2.52 10.303 1.411 2.324 3.883 3.609 6.418 3.609z"/><path d="m483.724 143.842c-3.63-1.996-8.19-.67-10.186 2.961-1.994 3.63-.669 8.19 2.961 10.185l14.838 8.154c1.146.63 2.384.929 3.605.929 2.647 0 5.215-1.405 6.58-3.89 1.994-3.63.669-8.19-2.961-10.185z"/></g></g></svg>