<svg id="Capa_1" enable-background="new 0 0 512 512" height="512" viewBox="0 0 512 512" width="512" xmlns="http://www.w3.org/2000/svg"><g><g><g><g><path d="m464.124 7.5h-416.248c-22.253 0-40.292 18.039-40.292 40.292v416.416c0 22.253 18.039 40.292 40.292 40.292h416.248c22.253 0 40.292-18.039 40.292-40.292v-416.416c0-22.253-18.039-40.292-40.292-40.292z" fill="#eaf2ff"/></g><path d="m464.124 7.5h-55.218c22.253 0 40.292 18.039 40.292 40.292v416.416c0 22.253-18.039 40.292-40.292 40.292h55.218c22.253 0 40.292-18.039 40.292-40.292v-416.416c0-22.253-18.039-40.292-40.292-40.292z" fill="#c9e0fd"/><path d="m62.415 379.36v-300.743c0-8.202 6.649-14.85 14.85-14.85h357.47c8.202 0 14.85 6.649 14.85 14.85v300.743c0 8.202-6.649 14.85-14.85 14.85h-357.47c-8.202 0-14.85-6.649-14.85-14.85z" fill="#db578e"/><path d="m434.735 63.767h-54.831c8.202 0 14.85 6.649 14.85 14.85v300.743c0 8.201-6.649 14.85-14.85 14.85h54.831c8.202 0 14.85-6.649 14.85-14.85v-300.743c0-8.202-6.648-14.85-14.85-14.85z" fill="#da4093"/><circle cx="256" cy="229.119" fill="#fff" r="101.045"/><path d="m256 128.074c-9.522 0-18.736 1.319-27.471 3.781 42.455 11.967 73.574 50.98 73.574 97.263s-31.119 85.296-73.574 97.263c8.735 2.462 17.949 3.781 27.471 3.781 55.805 0 101.045-45.239 101.045-101.045 0-55.804-45.24-101.043-101.045-101.043z" fill="#eaf2ff"/><path d="m313.14 220.876-79.975-46.173c-6.345-3.663-14.276.916-14.276 8.242v92.347c0 7.327 7.931 11.906 14.276 8.242l79.975-46.173c6.345-3.663 6.345-12.821 0-16.485z" fill="#db578e"/><path d="m313.14 220.876-12.208-7.048c.758 4.989 1.171 10.09 1.171 15.291s-.413 10.302-1.171 15.291l12.208-7.048c6.345-3.664 6.345-12.822 0-16.486z" fill="#e28424"/></g><g><g><path d="m458.089 445.605h-306.32c-4.143 0-7.5 3.358-7.5 7.5s3.357 7.5 7.5 7.5h306.32c4.143 0 7.5-3.358 7.5-7.5s-3.358-7.5-7.5-7.5z"/><path d="m81.357 445.605h-27.446c-4.143 0-7.5 3.358-7.5 7.5s3.357 7.5 7.5 7.5h27.446c4.143 0 7.5-3.358 7.5-7.5s-3.357-7.5-7.5-7.5z"/><path d="m116.438 428.765c-4.143 0-7.5 3.358-7.5 7.5v33.682c0 4.142 3.357 7.5 7.5 7.5s7.5-3.358 7.5-7.5v-33.682c0-4.142-3.357-7.5-7.5-7.5z"/><path d="m464.124 0h-416.248c-26.353 0-47.792 21.439-47.792 47.792v416.416c0 26.353 21.439 47.792 47.792 47.792h416.248c26.353 0 47.792-21.439 47.792-47.792v-416.416c0-26.353-21.439-47.792-47.792-47.792zm32.792 464.208c0 18.082-14.71 32.792-32.792 32.792h-416.248c-18.082 0-32.792-14.71-32.792-32.792v-416.416c0-18.082 14.71-32.792 32.792-32.792h416.248c18.082 0 32.792 14.71 32.792 32.792z"/><path d="m77.265 401.71h357.471c12.323 0 22.35-10.026 22.35-22.35v-300.743c0-12.324-10.026-22.35-22.35-22.35h-357.471c-12.323 0-22.35 10.026-22.35 22.35v300.743c0 12.324 10.026 22.35 22.35 22.35zm-7.35-323.093c0-4.053 3.297-7.35 7.35-7.35h357.471c4.053 0 7.35 3.297 7.35 7.35v300.743c0 4.053-3.297 7.35-7.35 7.35h-357.471c-4.053 0-7.35-3.297-7.35-7.35z"/><path d="m349.545 229.119c0 51.581-41.964 93.545-93.545 93.545-19.851 0-38.81-6.135-54.827-17.743-3.354-2.429-8.044-1.683-10.475 1.672-2.431 3.354-1.682 8.043 1.672 10.474 18.595 13.475 40.598 20.597 63.63 20.597 59.852 0 108.545-48.693 108.545-108.545 0-22.99-7.099-44.96-20.529-63.536-2.428-3.357-7.117-4.109-10.473-1.683-3.356 2.427-4.11 7.115-1.684 10.472 11.571 16.001 17.686 34.932 17.686 54.747z"/><path d="m176.165 291.517c3.441-2.305 4.362-6.964 2.058-10.405-10.315-15.398-15.768-33.377-15.768-51.993 0-51.581 41.964-93.544 93.545-93.544 18.747 0 36.831 5.523 52.297 15.972 3.433 2.319 8.095 1.416 10.413-2.016s1.416-8.095-2.017-10.414c-17.954-12.13-38.942-18.542-60.693-18.542-59.852 0-108.545 48.693-108.545 108.544 0 21.599 6.33 42.465 18.305 60.342 2.312 3.449 6.973 4.357 10.405 2.056z"/><path d="m236.915 168.208c-11.342-6.547-25.526 1.624-25.526 14.737v92.347c0 13.096 14.171 21.293 25.526 14.737l79.975-46.173c11.343-6.549 11.356-22.92 0-29.475zm72.475 62.658-79.975 46.173c-1.361.782-3.026-.188-3.026-1.747v-92.347c0-1.535 1.648-2.543 3.026-1.747l79.975 46.173c1.352.781 1.358 2.71 0 3.495z"/></g></g></g></g></svg>