<svg id="Layer_1" enable-background="new 0 0 256 256" height="512" viewBox="0 0 256 256" width="512" xmlns="http://www.w3.org/2000/svg"><g><path d="m131.2 140.7c-1.5 0-2.8-.7-3.7-1.8-4.1 1.5-8.4 2.2-12.8 2.2-6.6 0-13.1-1.7-18.9-5v13.1l8.1 18c.6 1.4 2 2.3 3.6 2.3h13.7c1.5 0 2.9-.9 3.5-2.2l8.8-18.1v-8.6c-.7 0-1.5.1-2.3.1z" fill="#f9d0b4"/><path d="m200.4 242.1c-1.4.8-3.1.3-3.9-1-.3-.4-.4-.9-.4-1.4v-14.5c0-1.6-1.3-2.9-2.9-2.9h-39.4c-9.8 0-17.8-8-17.8-17.8v-33.5c0-6.6 3.7-12.7 9.6-15.8l-12-5.9-8.8 18.1c-.7 1.3-2 2.2-3.5 2.2h-13.7c-1.5 0-2.9-.9-3.6-2.3l-8.1-18-19.1 9.4-31.8 8c-6.9 1.7-11.8 7.7-12.2 14.8l-6.1 66.2c-.1 3.2 2.4 5.9 5.7 5.9h.1 164.5c3.2 0 5.8-2.6 5.8-5.8v-.1l-.6-6.6c-.6.2-1.2.6-1.8 1z" fill="#c7d7e5"/><path d="m153.1 68.2c-.1-1.1-1-2-2.1-2-15.9-.5-24.2-6.8-27.5-9.9-.8-.8-2.1-.8-2.9 0-.1.1-.1.1-.1.2-14 17.6-34.6 15.1-41.5 13.6-1.2-.3-2.4.5-2.7 1.7v.2 30.8c0 21 17.5 38.2 38.5 38.2 4.4 0 8.7-.7 12.8-2.2-1.7-2-1.5-5.1.6-6.8.9-.7 2-1.1 3.1-1.1 1.8 0 3.5-.1 5.3-.2 1.2-.1 2.3.3 3.2 1 8.4-7.2 13.3-17.7 13.3-28.8 0-38.9 0-34.3 0-34.7z" fill="#f9d0b4"/><path d="m70.1 64.4h2.5c2 0 3.6 1.6 3.6 3.6v40.5c0 2-1.6 3.6-3.6 3.6h-2.5c-2 0-3.6-1.6-3.6-3.6v-40.5c0-2 1.6-3.6 3.6-3.6z" fill="#fc657e"/><path d="m66.5 68.9c-.4 0-.8-.1-1.2-.1-10.7.1-19.3 8.9-19.2 19.6.1 10.6 8.6 19.2 19.2 19.2.4 0 .8 0 1.2-.1z" fill="#ef4460"/><path d="m156.7 64.4h2.5c2 0 3.6 1.6 3.6 3.6v40.5c0 2-1.6 3.6-3.6 3.6h-2.5c-2 0-3.6-1.6-3.6-3.6v-40.5c0-2 1.6-3.6 3.6-3.6z" fill="#fc657e"/><path d="m162.8 68.9c.4 0 .8-.1 1.2-.1 10.7.1 19.3 8.8 19.2 19.5-.1 10.6-8.6 19.2-19.2 19.2-.4 0-.8 0-1.2-.1z" fill="#ef4460"/><path d="m131.2 140.7c-2.7 0-4.9-2.2-4.9-4.9s2.2-4.9 4.9-4.9c1.8 0 3.5-.1 5.3-.2 2.7-.2 5 1.9 5.1 4.6.1 2.6-1.8 4.9-4.5 5.1-1.9.2-3.9.3-5.9.3z" fill="#fc657e"/><path d="m65.3 68.9c.4 0 .8 0 1.2.1v-1c0-2 1.6-3.6 3.6-3.6h2.5c2 0 3.6 1.6 3.6 3.6v4.1c.1-1.2 1.2-2.1 2.5-2h.2c6.9 1.4 27.5 3.9 41.5-13.6.7-.9 2-1 2.9-.3.1 0 .1.1.2.1 3.2 3.2 11.6 9.4 27.5 9.9 1.1 0 2 .9 2.1 2v-.2c0-2 1.6-3.6 3.6-3.6h2.5c2 0 3.6 1.6 3.6 3.6v.9c.4 0 .8-.1 1.2-.1 2.9 0 5.8.7 8.4 1.9v-10.5c0-31.8-25.8-57.7-57.7-57.7s-57.7 25.8-57.7 57.7v10.6c2.6-1.3 5.4-1.9 8.3-1.9z" fill="#fff"/><path d="m70.1 64.4h2.5c2 0 3.6 1.6 3.6 3.6v4.1c.1-1.2 1.2-2.1 2.5-2h.2c6.9 1.4 27.5 3.9 41.5-13.6.7-.9 2-1 2.9-.3.1 0 .1.1.2.1 3.2 3.2 11.6 9.4 27.5 9.9 1.1 0 2 .9 2.1 2v-.2c0-2 1.6-3.6 3.6-3.6h2.5c1.6 0 3 1 3.4 2.5v-6.7c.1-26.5-21.2-48-47.7-48.1s-48 21.2-48.1 47.7v.4 6.4c.5-1.4 1.8-2.2 3.3-2.2z" fill="#818182"/><g fill="#edf4fc"><path d="m135.9 170.9c0-6.6 3.7-12.7 9.6-15.8l-12-5.9-8.8 18.1 11.1 13.9z"/><path d="m86.2 181.9c.7 1.8 2.8 2.7 4.6 1.9.6-.2 1-.6 1.4-1.1l12.1-15c-.1-.2-.2-.4-.3-.5l-8.1-18-12.7 6.3-6.4 3.1z"/><path d="m109.8 253.5h9.7v-84h-9.7z"/></g><path d="m207.4 127.8h-2.1v-2.1c0-1.5-1.3-2.8-2.8-2.8s-2.8 1.3-2.8 2.8v2.1h-2.1c-1.5 0-2.8 1.3-2.8 2.8s1.3 2.8 2.8 2.8h2.1v2.1c0 1.5 1.3 2.8 2.8 2.8s2.8-1.3 2.8-2.8v-2.1h2.1c1.5 0 2.8-1.3 2.8-2.8s-1.3-2.8-2.8-2.8z" fill="#f5c84c"/><path d="m59.5 19.9c-4-.7-7.1-3.8-7.9-7.7 0-.1-.1-.2-.2-.1-.1 0-.1.1-.1.1-.8 4-3.9 7-7.9 7.7-.1 0-.2.1-.2.2s.1.1.2.2c4 .7 7.1 3.8 7.9 7.7 0 .1.1.2.2.1.1 0 .1-.1.1-.1.8-4 3.9-7 7.9-7.7.1 0 .2-.1.2-.2-.1-.2-.1-.2-.2-.2z" fill="#70d6f9"/><circle cx="40.6" cy="44" fill="#f5c84c" r="3"/><circle cx="191.6" cy="109" fill="#fc657e" r="3"/><circle cx="37.6" cy="149" fill="#87d147" r="3"/><path d="m121.3 172h-13.7c-2.5 0-4.8-1.5-5.8-3.8l-8.1-18c-.1-.3-.2-.7-.2-1v-13.1c0-1.4 1.1-2.5 2.5-2.5.4 0 .9.1 1.2.3 9 5.1 19.8 6.1 29.5 2.6 1-.4 2.1 0 2.8.8.4.6 1.1.9 1.8.9h2.3c1.4 0 2.5 1.1 2.6 2.4v.1 8.6c0 .4-.1.8-.2 1.1l-8.8 18.1c-1.3 2.1-3.5 3.5-5.9 3.5zm-23-23.4 7.9 17.5c.2.5.7.8 1.3.8h13.7c.5 0 1-.3 1.3-.8l8.5-17.6v-5.5c-1.5 0-3-.5-4.2-1.4-9.4 2.9-19.5 2.4-28.5-1.6z"/><path d="m196.9 256h-164.4c-4.6 0-8.3-3.7-8.3-8.3 0-.1 0-.1 0-.2s0-.1 0-.2l6.1-66.2c.5-8.1 6.2-15 14.1-17l31.5-7.9 18.9-9.3c1.2-.6 2.7-.1 3.3 1.1v.1l8.1 18c.2.5.7.8 1.3.8h13.7c.5 0 1-.3 1.3-.8l8.8-18.1c.6-1.2 2.1-1.8 3.3-1.2l12 5.9c1.2.6 1.7 2.1 1.1 3.3-.2.5-.6.9-1.1 1.1-5.1 2.6-8.3 7.9-8.3 13.6v33.5c0 8.5 6.9 15.3 15.3 15.3h39.4c3 0 5.4 2.4 5.4 5.4v14.5c0 .1.1.3.2.3.1.1.3.1.4 0 .6-.3 1.1-.7 1.6-1 1.1-.8 2.7-.5 3.5.7.2.3.4.7.4 1.2l.6 6.6v.2c.1 4.6-3.5 8.4-8.1 8.5.1.1 0 .1-.1.1zm-167.7-8.3c0 1.8 1.5 3.3 3.3 3.3h164.5c1.8 0 3.3-1.5 3.3-3.3l-.3-2.8c-2.9.6-5.7-1.3-6.3-4.2-.1-.3-.1-.7-.1-1.1v-14.5c0-.2-.2-.4-.4-.4h-39.4c-11.2 0-20.3-9.1-20.3-20.3v-33.5c0-6 2.6-11.6 7.1-15.5l-5.9-2.9-7.7 15.9c-1.1 2.2-3.3 3.6-5.8 3.6h-13.7c-2.5 0-4.8-1.5-5.8-3.8l-7.1-15.7-16.8 8.3c-.2.1-.3.1-.5.2l-31.8 8c-5.8 1.4-10 6.5-10.3 12.5z"/><path d="m114.7 143.6c-22.5 0-40.9-18.2-41-40.7v-30.8c0-1.3.6-2.6 1.7-3.4 1.1-.9 2.6-1.3 4.1-1 7.4 1.6 26.1 3.4 39-12.7 1.6-2 4.4-2.3 6.4-.7.1.1.2.2.4.3 2.7 2.6 10.5 8.7 25.8 9.2 2.5.1 4.4 2 4.6 4.5h-.1v.1h.1v.3 1.8 32.4c0 11.8-5.2 23-14.2 30.7-.9.8-2.2.8-3.1.1-.4-.3-1-.5-1.6-.5-1.8.1-3.7.2-5.5.2-1.3 0-2.4 1.1-2.4 2.4 0 .6.2 1.1.6 1.5.9 1.1.7 2.6-.3 3.5-.2.2-.5.3-.8.4-4.4 1.6-9.1 2.4-13.7 2.4zm-36-71v30.2c.1 19.8 16.2 35.8 36 35.7 3.1 0 6.3-.4 9.3-1.2-.1-.5-.2-1-.2-1.6 0-4.1 3.3-7.4 7.4-7.4 1.7 0 3.4-.1 5.1-.2 1-.1 2.1.1 3 .4 7.1-6.7 11.2-16 11.2-25.8v-32.3-1.7c-15.7-.5-24.5-6.5-28.5-10.3-14.7 18.2-36.5 15.6-43.3 14.2z"/><path d="m114.7 122.7c-6.9 0-13.3-3.5-17-9.4-.7-1.2-.4-2.7.8-3.5s2.7-.4 3.5.8c4.4 7.1 13.8 9.2 20.8 4.8 1.9-1.2 3.6-2.8 4.8-4.8.7-1.2 2.3-1.5 3.5-.8s1.5 2.3.8 3.5c-3.9 5.9-10.3 9.4-17.2 9.4z"/><circle cx="98.2" cy="91.3" r="4.5"/><circle cx="131.9" cy="91.3" r="4.5"/><path d="m72.6 114.6h-2.5c-3.4 0-6.1-2.7-6.1-6.1v-40.5c0-3.4 2.7-6.1 6.1-6.1h2.5c3.4 0 6.1 2.7 6.1 6.1v40.5c0 3.4-2.7 6.1-6.1 6.1zm-2.5-47.7c-.6 0-1.1.5-1.1 1.1v40.5c0 .6.5 1.1 1.1 1.1h2.5c.6 0 1.1-.5 1.1-1.1v-40.5c0-.6-.5-1.1-1.1-1.1z"/><path d="m65.3 110.1c-12.1 0-21.9-9.8-21.9-21.9s9.8-21.9 21.9-21.9c.5 0 .9 0 1.4.1 1.3.1 2.3 1.2 2.3 2.5v38.7c0 1.3-1 2.4-2.3 2.5-.5 0-.9 0-1.4 0zm-1.3-38.7c-9.3.7-16.2 8.9-15.5 18.2.7 8.3 7.2 14.9 15.5 15.5z"/><path d="m159.2 114.6h-2.5c-3.4 0-6.1-2.7-6.1-6.1v-40.5c0-3.4 2.7-6.1 6.1-6.1h2.5c3.4 0 6.1 2.7 6.1 6.1v40.5c0 3.4-2.7 6.1-6.1 6.1zm-2.5-47.7c-.6 0-1.1.5-1.1 1.1v40.5c0 .6.5 1.1 1.1 1.1h2.5c.6 0 1.1-.5 1.1-1.1v-40.5c0-.6-.5-1.1-1.1-1.1z"/><path d="m164 110.1c-.5 0-.9 0-1.3-.1-1.3-.1-2.3-1.2-2.3-2.5v-38.6c0-1.3 1-2.4 2.3-2.5.4 0 .9-.1 1.4-.1 12.1 0 21.9 9.8 21.9 21.9-.1 12.1-9.9 21.9-22 21.9zm1.3-38.7v33.7c9.3-.7 16.2-8.9 15.5-18.2-.6-8.3-7.2-14.8-15.5-15.5z"/><path d="m131.2 143.2c-4.1 0-7.4-3.3-7.4-7.4s3.3-7.4 7.4-7.4c1.7 0 3.4-.1 5.1-.2 4.1-.2 7.5 2.9 7.7 7 .2 3.9-2.8 7.3-6.7 7.7-2 .2-4 .3-6.1.3zm5.7-10c-.1 0-.1 0-.2 0-1.8.1-3.7.2-5.5.2-1.3 0-2.4 1.1-2.4 2.4s1.1 2.4 2.4 2.4c1.9 0 3.9-.1 5.8-.2 1.3-.1 2.3-1.2 2.2-2.5s-1.1-2.3-2.3-2.3z"/><path d="m142.8 137.4c-1.4 0-2.5-1.1-2.5-2.5 0-1.2.9-2.3 2.1-2.5 6.5-1 12.7-3.2 18.3-6.4 4.6-2.6 7.4-7.4 7.4-12.7v-6.9c0-1.4 1.1-2.5 2.5-2.5s2.5 1.1 2.5 2.5v6.9c0 7.1-3.8 13.6-10 17.1s-13 5.9-20 7c0 0-.1 0-.3 0z"/><path d="m76.2 74.6c-1.4 0-2.5-1.1-2.5-2.5v-4.1c0-.6-.5-1.1-1.1-1.1h-2.5c-.6 0-1.1.5-1.1 1.1v.9c0 .7-.3 1.4-.8 1.8-.5.5-1.2.7-1.9.7-2.8-.2-5.7.4-8.2 1.6-1.2.6-2.7.1-3.3-1.2-.2-.3-.2-.7-.2-1.1v-10.5c.1-33.2 27.2-60.1 60.4-59.9 33 .1 59.8 26.9 59.9 59.9v10.6c0 1.4-1.1 2.5-2.5 2.5-.4 0-.7-.1-1.1-.2-2.6-1.3-5.4-1.8-8.3-1.6-1.4.1-2.6-.9-2.7-2.3 0-.1 0-.1 0-.2v-1c0-.6-.5-1.1-1.1-1.1h-2.5c-.6 0-1.1.5-1.1 1.1v.2c0 1.4-1.1 2.5-2.5 2.5-1.2 0-2.2-.8-2.5-2-15.8-.5-24.5-6.5-28.5-10.3-14.8 18.3-36.7 15.6-43.4 14.2-.3 1.2-1.3 2-2.5 2zm2.5-7c.3 0 .5 0 .7.1 7.4 1.6 26.1 3.4 39-12.7 1.6-2 4.4-2.3 6.4-.7.1.1.2.2.4.3 2.7 2.6 10.5 8.7 25.8 9.2.4 0 .8.1 1.1.2 1.2-1.3 2.8-2 4.5-2h2.5c2.8 0 5.2 1.8 5.9 4.5 1.6.1 3.2.3 4.8.8v-7c-.1-30.5-24.9-55.1-55.4-54.9-30.2 0-54.7 24.5-54.9 54.8v7c1.5-.4 3.1-.7 4.7-.8.7-2.7 3.1-4.5 5.9-4.5h2.5c3.2 0 5.9 2.5 6.1 5.7z"/><path d="m76.2 74.6c-1.4 0-2.5-1.1-2.5-2.5v-4.1c0-.6-.5-1.1-1.1-1.1h-2.5c-.4 0-.8.3-1 .7-.5 1.3-2 1.9-3.3 1.3-.9-.4-1.5-1.3-1.5-2.3v-6.4c0-27.8 22.6-50.4 50.4-50.4s50.4 22.6 50.4 50.4v6.7c0 1.4-1.1 2.5-2.5 2.5-1.1 0-2.1-.7-2.4-1.7-.1-.5-.6-.8-1-.8h-2.5c-.6 0-1.1.5-1.1 1.1v.2c0 1.4-1.1 2.5-2.5 2.5-1.2 0-2.2-.8-2.5-2-15.8-.5-24.5-6.5-28.5-10.3-14.8 18.3-36.7 15.6-43.4 14.2-.3 1.2-1.3 2-2.5 2zm2.5-7c.3 0 .5 0 .7.1 7.4 1.6 26.1 3.4 39-12.7 1.6-2 4.4-2.3 6.4-.7.1.1.2.2.4.3 2.7 2.6 10.5 8.7 25.8 9.2.4 0 .8.1 1.1.2 1.2-1.3 2.8-2 4.5-2h2.5c.3 0 .6 0 .9.1v-1.8c0-25.1-20.3-45.4-45.4-45.4s-45.3 20.2-45.3 45.3v1.8c.3 0 .5-.1.8-.1h2.5c3.2 0 5.9 2.5 6.1 5.7z"/><path d="m135.9 183.7c-.8 0-1.5-.3-1.9-.9l-11.1-13.9c-.6-.8-.7-1.8-.3-2.7l8.8-18.1c.6-1.2 2.1-1.8 3.3-1.2l12 5.9c1.2.6 1.7 2.1 1.1 3.3-.2.5-.6.9-1.1 1.1-5.1 2.6-8.3 7.9-8.3 13.6v10.3c0 1.5-1.1 2.6-2.5 2.6zm-8.2-16.7 5.7 7.1v-3.2c0-6 2.6-11.6 7.1-15.5l-5.9-2.9z"/><path d="m89.5 186.6c-.3 0-.6 0-.9-.1-2.1-.3-3.9-1.7-4.7-3.7l-9.5-23.3c-.5-1.2 0-2.6 1.2-3.2l19.1-9.4c1.2-.6 2.7-.1 3.3 1.1v.1l8.1 18c0 .1.1.1.1.2.6.9.5 2.1-.1 2.9l-12.1 15c-1 1.6-2.7 2.4-4.5 2.4zm-1-5.6c.2.5.8.8 1.3.6.2-.1.3-.2.4-.3l11.1-13.8-6.7-14.9-14.7 7.3z"/><path d="m119.6 256h-9.7c-1.4 0-2.5-1.1-2.5-2.5v-84c0-1.4 1.1-2.5 2.5-2.5h9.7c1.4 0 2.5 1.1 2.5 2.5v84c0 1.4-1.2 2.5-2.5 2.5zm-7.3-5h4.7v-79h-4.7z"/><path d="m211.5 153h-57.8c-9.8 0-17.8 8-17.8 17.8v33.5c0 9.8 8 17.8 17.8 17.8h39.4c1.6 0 2.9 1.3 2.9 2.9v14.5c0 1.6 1.3 2.9 2.9 2.9.5 0 1-.1 1.4-.4 6.7-3.9 11.7-10 14.1-17.4.6-1.7 2-3.1 3.7-3.8 6.7-2.7 11.2-9.3 11.2-16.5v-33.5c0-9.8-8-17.7-17.8-17.8z" fill="#f5c84c"/><path d="m198.9 245c-.9 0-1.9-.3-2.7-.7-1.7-.9-2.7-2.7-2.7-4.6v-14.5c0-.2-.2-.4-.4-.4h-39.4c-11.2 0-20.3-9.1-20.3-20.3v-33.5c0-11.2 9.1-20.3 20.3-20.3h57.8c11.2 0 20.3 9.1 20.3 20.3v33.5c0 8.3-5 15.8-12.8 18.9-1 .4-1.8 1.2-2.2 2.2-2.6 7.9-8 14.5-15.2 18.7-.8.4-1.7.7-2.7.7zm-45.1-89.5c-8.5 0-15.3 6.9-15.3 15.3v33.5c0 8.5 6.9 15.3 15.3 15.3h39.4c3 0 5.4 2.4 5.4 5.4v14.5c0 .1.1.3.2.3.1.1.3.1.4 0 6.1-3.6 10.8-9.3 13-16 .9-2.4 2.7-4.3 5.1-5.3 5.8-2.3 9.6-8 9.6-14.2v-33.5c0-8.5-6.9-15.3-15.3-15.3z"/><path d="m182.3 205c-5.3 0-10.2-2.7-13.1-7.2-.7-1.2-.4-2.7.8-3.5 1.2-.7 2.7-.4 3.5.8 3.1 4.9 9.5 6.4 14.4 3.3 1.3-.8 2.5-2 3.3-3.3.7-1.2 2.3-1.5 3.5-.8s1.5 2.3.8 3.5c-3 4.5-7.9 7.2-13.2 7.2z"/><circle cx="169.6" cy="179.8" r="4.6"/><circle cx="195.7" cy="179.8" r="4.6"/><path d="m59 254c-1.4 0-2.5-1.1-2.5-2.5v-38.5c0-1.4 1.1-2.5 2.5-2.5s2.5 1.1 2.5 2.5v38.5c0 1.4-1.1 2.5-2.5 2.5z"/></g></svg>