<?xml version="1.0" encoding="iso-8859-1"?>
<!-- Generator: Adobe Illustrator 19.0.0, SVG Export Plug-In . SVG Version: 6.00 Build 0)  -->
<svg version="1.1" id="Capa_1" xmlns="http://www.w3.org/2000/svg" xmlns:xlink="http://www.w3.org/1999/xlink" x="0px" y="0px"
	 viewBox="0 0 511.999 511.999" style="enable-background:new 0 0 511.999 511.999;" xml:space="preserve">
<polygon style="fill:#F9CA00;" points="338.079,59.494 173.911,59.494 158.702,136.724 353.288,136.724 "/>
<g>
	<path style="fill:#2B2A32;" d="M36.505,392.205v45.154c0,8.365,6.782,15.146,15.146,15.146h58.415
		c8.365,0,15.146-6.782,15.146-15.146V360.27"/>
	<path style="fill:#2B2A32;" d="M386.782,360.269v77.089c0,8.365,6.782,15.146,15.146,15.146h58.415
		c8.365,0,15.146-6.782,15.146-15.146v-45.154"/>
</g>
<path style="fill:#0D1B24;" d="M338.11,411.974H173.881c-11.761,0-21.294-9.534-21.294-21.294l0,0l136.427-18.244l70.39,18.244l0,0
	C359.404,402.44,349.87,411.974,338.11,411.974z"/>
<path style="fill:#F9CA00;" d="M460.438,244.695H51.552c-15.589,0-28.227,12.638-28.227,28.227v87.348h465.339v-87.349
	C488.665,257.332,476.027,244.695,460.438,244.695z"/>
<rect x="140.42" y="271.532" style="fill:#616970;" width="231.15" height="44.101"/>
<path style="fill:#9AA7B8;" d="M452.172,390.679h39.762c6.882,0,12.462-5.579,12.462-12.462v-25.251
	c0-6.882-5.579-12.462-12.462-12.462h-39.762h-41.061H100.879H59.828H20.066c-6.882,0-12.462,5.579-12.462,12.462v25.252
	c0,6.882,5.579,12.462,12.462,12.462h39.762"/>
<path style="fill:#C0EAF9;" d="M429.36,244.693H82.63l28.287-84.931c4.573-13.758,17.449-23.035,31.947-23.035h226.263
	c14.498,0,27.374,9.277,31.947,23.035L429.36,244.693z"/>
<path style="fill:#A0D9F2;" d="M428.083,244.693H83.907l21.007-60.598c4.765-13.758,18.168-23.035,33.265-23.035h235.632
	c15.096,0,28.5,9.277,33.265,23.035L428.083,244.693z"/>
<g>
	<rect x="398.944" y="282.208" style="fill:#FEFFFF;" width="63.87" height="33.455"/>
	<rect x="49.182" y="282.208" style="fill:#FEFFFF;" width="63.87" height="33.455"/>
</g>
<path id="SVGCleanerId_0" d="M220.497,75.22c2.227,0,3.172,2.429,3.172,4.657c0,2.565-1.148,4.793-3.172,4.793h-9.314v36.651
	c0,2.16-2.632,3.239-5.265,3.239c-2.632,0-5.265-1.08-5.265-3.239V84.669h-9.314c-2.025,0-3.172-2.227-3.172-4.793
	c0-2.227,0.945-4.657,3.172-4.657H220.497z"/>
<path id="SVGCleanerId_1" d="M223.599,120.239c0-0.203,0.068-0.472,0.135-0.742l12.555-41.173c0.742-2.363,3.78-3.51,6.885-3.51
	c3.105,0,6.142,1.147,6.885,3.51l12.622,41.173c0.068,0.271,0.135,0.54,0.135,0.742c0,2.497-3.848,4.32-6.749,4.32
	c-1.688,0-3.038-0.54-3.443-1.958l-2.295-8.437h-14.242l-2.295,8.437c-0.405,1.417-1.755,1.958-3.442,1.958
	C227.447,124.559,223.599,122.738,223.599,120.239z M248.101,106.066l-4.927-18.089l-4.927,18.089H248.101z"/>
<path id="SVGCleanerId_2" d="M286.367,107.145l-9.855,16.74c-0.472,0.742-1.417,1.08-2.497,1.08c-2.902,0-7.019-2.295-7.019-5.197
	c0-0.608,0.203-1.216,0.607-1.89l11.677-18.021l-11.204-17.953c-0.472-0.742-0.675-1.417-0.675-2.093
	c0-2.835,3.847-4.994,6.817-4.994c1.484,0,2.497,0.539,3.172,1.755l8.977,15.659l8.977-15.659c0.675-1.216,1.688-1.755,3.172-1.755
	c2.97,0,6.817,2.16,6.817,4.994c0,0.675-0.203,1.35-0.675,2.093l-11.204,17.953l11.677,18.021c0.405,0.675,0.607,1.283,0.607,1.89
	c0,2.902-4.117,5.197-7.02,5.197c-1.08,0-2.092-0.338-2.497-1.08L286.367,107.145z"/>
<path id="SVGCleanerId_3" d="M313.295,78.392c0-2.227,2.632-3.172,5.264-3.172c2.633,0,5.265,0.945,5.265,3.172v42.928
	c0,2.16-2.632,3.239-5.265,3.239c-2.632,0-5.264-1.08-5.264-3.239V78.392z"/>
<g>
	<path style="fill:#F9CA00;" d="M439.113,218.311h34.686c12.758,0,23.101-10.342,23.101-23.101l0,0
		c0-8.239-6.678-14.917-14.917-14.917h-27.954c-8.239,0-14.917,6.678-14.917,14.917v23.101H439.113z"/>
	<path style="fill:#F9CA00;" d="M72.878,218.311H38.192c-12.758,0-23.101-10.342-23.101-23.101l0,0
		c0-8.239,6.678-14.917,14.917-14.917h27.954c8.239,0,14.917,6.678,14.917,14.917v23.101H72.878z"/>
</g>
<path d="M496.269,333.383v-60.463c0-19.789-16.042-35.831-35.831-35.831h-20.163l4.132-11.176h29.391
	c17.233,0,31.194-14.27,30.692-31.613c-0.351-12.078-10.424-21.612-22.508-21.612h-27.953c-12.438,0-22.521,10.083-22.521,22.521
	v21.74l-1.775,4.803l-21.44-64.395c-5.614-16.862-21.39-28.237-39.161-28.237h-9.59l-14-71.095
	c-0.702-3.565-3.827-6.135-7.461-6.135h-45.07c-4.199,0-7.604,3.405-7.604,7.604l0,0c0,4.199,3.405,7.604,7.604,7.604h38.818
	l12.214,62.022H167.95l12.213-62.022h77.36c4.199,0,7.604-3.405,7.604-7.604l0,0c0-4.199-3.405-7.604-7.604-7.604h-83.612
	c-3.634,0-6.759,2.57-7.461,6.135l-14,71.095h-9.59c-17.772,0-33.548,11.376-39.161,28.237l-21.44,64.395l-1.775-4.803v-21.74
	c0-12.438-10.083-22.521-22.521-22.521H30.007c-12.083,0-22.157,9.533-22.507,21.612c-0.504,17.344,13.459,31.613,30.692,31.613
	h29.391l4.132,11.176H51.552c-19.789,0-35.83,16.041-35.83,35.83v60.466C6.741,335.379,0,343.393,0,352.965v25.252
	c0,11.083,8.984,20.066,20.066,20.066h8.835v39.075c0,12.565,10.185,22.75,22.75,22.75h58.414c12.565,0,22.75-10.185,22.75-22.75
	v-39.075h13.189c3.348,12.257,14.573,21.294,27.876,21.294h164.228c13.303,0,24.528-9.039,27.876-21.294h13.192v39.075
	c0,12.565,10.185,22.75,22.75,22.75h58.415c12.565,0,22.75-10.185,22.75-22.75v-39.076h8.841c11.083,0,20.066-8.984,20.066-20.066
	v-25.251C512,343.39,505.254,335.373,496.269,333.383z M446.716,195.21c0-4.032,3.281-7.313,7.313-7.313h27.953
	c4.032,0,7.313,3.281,7.313,7.313c0,8.545-6.952,15.497-15.497,15.497h-27.082V195.21z M118.127,162.161
	c3.552-10.667,13.49-17.833,24.732-17.833h15.844h194.585h15.843c11.242,0,21.182,7.166,24.733,17.833l24.947,74.93H93.18
	L118.127,162.161z M65.274,210.707H38.192c-8.545,0-15.497-6.952-15.497-15.497c0-4.032,3.28-7.313,7.312-7.313h27.954
	c4.032,0,7.313,3.281,7.313,7.313C65.274,195.21,65.274,210.707,65.274,210.707z M117.608,437.358c0,4.159-3.383,7.542-7.542,7.542
	H51.651c-4.159,0-7.542-3.383-7.542-7.542v-39.075h73.499V437.358z M338.11,404.37H173.881c-4.738,0-8.921-2.419-11.38-6.086
	h186.987C347.031,401.951,342.847,404.37,338.11,404.37z M467.885,437.358c0,4.159-3.383,7.542-7.542,7.542h-58.415
	c-4.159,0-7.542-3.383-7.542-7.542v-39.075h73.499L467.885,437.358L467.885,437.358z M496.792,378.216
	c0,2.684-2.175,4.858-4.858,4.858h-132.53H152.586H20.066c-2.684,0-4.858-2.175-4.858-4.858v-25.251
	c0-2.683,2.175-4.858,4.858-4.858h82.337c4.199,0,7.604-3.405,7.604-7.604l0,0c0-4.199-3.405-7.604-7.604-7.604H30.93v-59.978
	c0-11.39,9.233-20.623,20.623-20.623h31.081h346.723h31.081c11.39,0,20.623,9.233,20.623,20.623v59.978H137.889
	c-4.199,0-7.604,3.405-7.604,7.604l0,0c0,4.199,3.405,7.604,7.604,7.604h354.045c2.683,0,4.858,2.175,4.858,4.858v25.251H496.792z"
	/>
<path d="M140.421,323.239H371.57c4.199,0,7.604-3.405,7.604-7.604v-44.101c0-4.199-3.405-7.604-7.604-7.604H140.421
	c-4.199,0-7.604,3.405-7.604,7.604v44.101C132.817,319.834,136.221,323.239,140.421,323.239z M286.916,308.031h-23.317v-28.893
	h23.317V308.031z M302.124,279.138h23.317v28.893h-23.317V279.138z M248.391,308.031h-23.317v-28.893h23.317V308.031z
	 M209.866,308.031h-23.317v-28.893h23.317V308.031z M171.342,308.031h-23.317v-28.893h23.317V308.031z M363.966,308.031h-23.318
	v-28.893h23.318V308.031z"/>
<path d="M398.942,323.267h63.87c4.199,0,7.604-3.405,7.604-7.604v-33.456c0-4.199-3.405-7.604-7.604-7.604h-63.87
	c-4.199,0-7.604,3.405-7.604,7.604v33.456C391.338,319.863,394.743,323.267,398.942,323.267z M406.546,289.811h48.662v18.248
	h-48.662V289.811z"/>
<path d="M113.048,274.603h-63.87c-4.199,0-7.604,3.405-7.604,7.604v33.456c0,4.199,3.405,7.604,7.604,7.604h63.87
	c4.199,0,7.604-3.405,7.604-7.604v-33.456C120.652,278.007,117.248,274.603,113.048,274.603z M105.444,308.059H56.781v-18.248
	h48.662V308.059z"/>
<g>
	<path id="SVGCleanerId_0_1_" d="M220.497,75.22c2.227,0,3.172,2.429,3.172,4.657c0,2.565-1.148,4.793-3.172,4.793h-9.314v36.651
		c0,2.16-2.632,3.239-5.265,3.239c-2.632,0-5.265-1.08-5.265-3.239V84.669h-9.314c-2.025,0-3.172-2.227-3.172-4.793
		c0-2.227,0.945-4.657,3.172-4.657H220.497z"/>
</g>
<g>
	<path id="SVGCleanerId_1_1_" d="M223.599,120.239c0-0.203,0.068-0.472,0.135-0.742l12.555-41.173c0.742-2.363,3.78-3.51,6.885-3.51
		c3.105,0,6.142,1.147,6.885,3.51l12.622,41.173c0.068,0.271,0.135,0.54,0.135,0.742c0,2.497-3.848,4.32-6.749,4.32
		c-1.688,0-3.038-0.54-3.443-1.958l-2.295-8.437h-14.242l-2.295,8.437c-0.405,1.417-1.755,1.958-3.442,1.958
		C227.447,124.559,223.599,122.738,223.599,120.239z M248.101,106.066l-4.927-18.089l-4.927,18.089H248.101z"/>
</g>
<g>
	<path id="SVGCleanerId_2_1_" d="M286.367,107.145l-9.855,16.74c-0.472,0.742-1.417,1.08-2.497,1.08
		c-2.902,0-7.019-2.295-7.019-5.197c0-0.608,0.203-1.216,0.607-1.89l11.677-18.021l-11.204-17.953
		c-0.472-0.742-0.675-1.417-0.675-2.093c0-2.835,3.847-4.994,6.817-4.994c1.484,0,2.497,0.539,3.172,1.755l8.977,15.659
		l8.977-15.659c0.675-1.216,1.688-1.755,3.172-1.755c2.97,0,6.817,2.16,6.817,4.994c0,0.675-0.203,1.35-0.675,2.093l-11.204,17.953
		l11.677,18.021c0.405,0.675,0.607,1.283,0.607,1.89c0,2.902-4.117,5.197-7.02,5.197c-1.08,0-2.092-0.338-2.497-1.08
		L286.367,107.145z"/>
</g>
<g>
	<path id="SVGCleanerId_3_1_" d="M313.295,78.392c0-2.227,2.632-3.172,5.264-3.172c2.633,0,5.265,0.945,5.265,3.172v42.928
		c0,2.16-2.632,3.239-5.265,3.239c-2.632,0-5.264-1.08-5.264-3.239V78.392z"/>
</g>
<g>
</g>
<g>
</g>
<g>
</g>
<g>
</g>
<g>
</g>
<g>
</g>
<g>
</g>
<g>
</g>
<g>
</g>
<g>
</g>
<g>
</g>
<g>
</g>
<g>
</g>
<g>
</g>
<g>
</g>
</svg>
