<svg viewBox="0 0 512 512" xmlns="http://www.w3.org/2000/svg"><g id="filled_outlind" data-name="filled outlind"><path d="m423.99 192a8 8 0 0 1 -7.909-6.869l-7.24-50.676-26.781-6.695c-4.287-1.072-4.893-5.415-3.821-9.7s3.415-6.9 7.7-5.821l32 8a8 8 0 0 1 5.979 6.629l8 56a8 8 0 0 1 -7.928 9.132z" fill="#cbcbcb"/><path d="m384 144a8 8 0 0 1 -8-8v-32a8 8 0 0 1 16 0v32a8 8 0 0 1 -8 8z" fill="#cbcbcb"/><path d="m40 24h72v48h-72z" fill="#02a437"/><path d="m112 160a8 8 0 0 1 -8-8v-128a8 8 0 0 1 16 0v128a8 8 0 0 1 -8 8z" fill="#cbcbcb"/><path d="m63.993 344a7.968 7.968 0 0 1 -4.431-1.345l-24-16a8 8 0 0 1 -3.562-6.655v-24a8 8 0 0 1 16 0v19.719l20.438 13.625a8 8 0 0 1 -4.445 14.656z" fill="#cbcbcb"/><path d="m368 432h-344a135.2 135.2 0 0 1 39.6-95.6l40.4-40.4h184v32l-18 13.5a35 35 0 0 0 -14 28 35 35 0 0 0 10.252 24.751l5.748 5.749h96z" fill="#ea9d2d"/><path d="m88 320h200v-16h-184z" fill="#c38325"/><path d="m284.95 123.564-30.869-6 9-16.817 30.593 8.039z" fill="#02a437"/><path d="m396 184h44a0 0 0 0 1 0 0v40a0 0 0 0 1 0 0h-44a20 20 0 0 1 -20-20 20 20 0 0 1 20-20z" fill="#ea9d2d"/><path d="m440 184h24v40h-24z" fill="#cbcbcb"/><circle cx="376" cy="200" fill="#683b0d" r="16"/><circle cx="416" cy="432" fill="#656666" r="56"/><circle cx="416" cy="432" fill="#eaeae8" r="24"/><circle cx="144" cy="432" fill="#656666" r="56"/><circle cx="144" cy="432" fill="#eaeae8" r="24"/><path d="m152 336h32a48 48 0 0 1 48 48 48 48 0 0 1 -48 48h-128a0 0 0 0 1 0 0 96 96 0 0 1 96-96z" fill="#fbb540"/><path d="m24 184h160v112h-160z" fill="#027e2a"/><path d="m24 184h160v24h-160z" fill="#026a23"/><path d="m24 152h160v32h-160z" fill="#02a437"/><path d="m184 264h104v32h-104z" fill="#683b0d"/><path d="m376 400v-83.156a95.263 95.263 0 0 1 16-52.844v-40h32l32 152-8 24z" fill="#fbb540"/><path d="m392 248h40l-8-24h-32z" fill="#c38325"/><path d="m344 432a72 72 0 0 1 144 0z" fill="#ea9d2d"/><path d="m216 232v10a22 22 0 0 0 22 22h50v88h40v-90a30 30 0 0 0 -30-30z" fill="#027e2a"/><path d="m288 352v48h64v-24l-24-24z" fill="#cbcbcb"/><path d="m208 232 24.827-94.9a34.615 34.615 0 0 1 33.283-25.1 34.615 34.615 0 0 1 33.283 44.124l-19.393 75.876z" fill="#02a437"/><path d="m265.462 144.558 22.538 39.442h64v-32h-40l-15.4-25.675a18.041 18.041 0 0 0 -23.538-6.854 18.041 18.041 0 0 0 -7.6 25.087z" fill="#027e2a"/><path d="m352 152h23.644a16.356 16.356 0 0 1 16.356 16.356v15.644h-40z" fill="#f6bb92"/><path d="m336 123-96-16v-32a48 48 0 0 1 48-48 48 48 0 0 1 38.4 19.2 48 48 0 0 1 9.6 28.8z" fill="#02a437"/><path d="m336 75v24l-48-16v-24h45.25c.1.27.2.54.29.82a47.982 47.982 0 0 1 2.46 15.18z" fill="#02a437"/><path d="m336 75v24l-48-16v-24h45.25c.1.27.2.54.29.82a47.982 47.982 0 0 1 2.46 15.18z" fill="#cbcbcb"/><g fill="#ea9d2d"><path d="m128 400a8 8 0 0 1 -8-8v-24a8 8 0 0 1 16 0v24a8 8 0 0 1 -8 8z"/><path d="m160 400a8 8 0 0 1 -8-8v-24a8 8 0 0 1 16 0v24a8 8 0 0 1 -8 8z"/><path d="m192 400a8 8 0 0 1 -8-8v-24a8 8 0 0 1 16 0v24a8 8 0 0 1 -8 8z"/></g><path d="m136 256h-64a8 8 0 0 1 -8-8v-24a8 8 0 0 1 16 0v16h48v-16a8 8 0 0 1 16 0v24a8 8 0 0 1 -8 8z" fill="#014e1a"/><path d="m462.233 366.774-28.373-134.774h30.14a8 8 0 0 0 8-8v-40a8 8 0 0 0 -8-8h-33.062l-7.019-49.132a8 8 0 0 0 -5.979-6.629l-25.94-6.485v-9.754a8 8 0 0 0 -16 0v32a8 8 0 0 0 16 0v-5.754l16.841 4.21 5.935 41.544h-14.776v-7.645a24.383 24.383 0 0 0 -24.356-24.355h-59.114l-10.756-17.927 28.911 4.819a8.1 8.1 0 0 0 1.315.108 8 8 0 0 0 8-8v-48a56 56 0 0 0 -112 0v32a8 8 0 0 0 5.915 7.722 42.477 42.477 0 0 0 -12.78 20.186c-.016.057-.032.114-.048.173l-24.827 94.9a8 8 0 0 0 7.74 10.019v2a29.808 29.808 0 0 0 3.479 14h-19.479v-104a8 8 0 0 0 -8-8h-64v-120a8 8 0 0 0 -8-8h-72a8 8 0 0 0 -8 8v48a8 8 0 0 0 8 8h64v64h-80a8 8 0 0 0 -8 8v144a8 8 0 0 0 8 8h8v16a8 8 0 0 0 3.562 6.656l16.132 10.754a142.131 142.131 0 0 0 -35.694 94.59 8 8 0 0 0 8 8h56.518a63.982 63.982 0 0 0 126.964 0h145.036a63.982 63.982 0 0 0 126.964 0h8.518a8 8 0 0 0 8-8 79.937 79.937 0 0 0 -33.767-65.226zm-14.233-174.774h8v24h-8zm-49.376 0h33.376v24h-36a12.156 12.156 0 0 1 -1.98-.174 23.935 23.935 0 0 0 4.6-23.826zm.032 76.438a8 8 0 0 0 1.344-4.438v-32h17.509l26.315 125a79.844 79.844 0 0 0 -59.824 1.7v-41.855a86.994 86.994 0 0 1 14.656-48.407zm-38.656-108.438h15.644a8.365 8.365 0 0 1 8.356 8.355v7.645h-24zm24 40a8 8 0 1 1 -8-8 8.009 8.009 0 0 1 8 8zm-30.624-8a23.992 23.992 0 0 0 22.624 32c.134 0 .267-.008.4-.01a28 28 0 0 0 7.6 5.324v32.316a102.92 102.92 0 0 0 -16 55.215v51.2a80.845 80.845 0 0 0 -8.069 6.964 8 8 0 0 0 -2.274-4.664l-21.657-21.659v-86.686a38.043 38.043 0 0 0 -38-38h-7.7l8.179-32h54.895zm-65.376 64h-50a14.015 14.015 0 0 1 -14-14v-2h74a22.025 22.025 0 0 1 22 22v82h-24v-80a8 8 0 0 0 -8-8zm24-96h32v16h-51.357l-20.235-35.411a10.04 10.04 0 0 1 4.227-13.961 10.089 10.089 0 0 1 13.1 3.814l15.4 25.675a8 8 0 0 0 6.865 3.883zm16-85v12.9l-32-10.666v-10.234h31.181a39.685 39.685 0 0 1 .819 8zm-80 0a40 40 0 0 1 72-24h-32a8 8 0 0 0 -8 8v24a8 8 0 0 0 5.47 7.59l42.53 14.176v8.791l-80-13.334zm-7.458 64.224a26.748 26.748 0 0 1 19.186-18.436 25.97 25.97 0 0 0 -1.212 27.738l22.538 39.443a7.989 7.989 0 0 0 1.471 1.847l-8.737 34.184h-55.426zm-48.542 132.776h88v16h-88zm-144-208v-32h56v32zm-16 96h144v16h-144zm0 128v-96h144v96zm16 27.719v-11.719h36.686l-21.705 21.706zm96 164.281a48.069 48.069 0 0 1 -47.321-40h16.334a32 32 0 0 0 61.974 0h16.334a48.069 48.069 0 0 1 -47.321 40zm-13.835-40h27.67a15.963 15.963 0 0 1 -27.67 0zm53.835-16h-119.64a88.12 88.12 0 0 1 87.64-80h32a40 40 0 0 1 0 80zm152.4 0h-113.262a55.963 55.963 0 0 0 -39.138-96h-32a104.139 104.139 0 0 0 -103.695 96h-16.059a126.255 126.255 0 0 1 37.009-81.94l38.059-38.06h172.686v20l-14.8 11.1a43.206 43.206 0 0 0 -17.2 34.4 42.725 42.725 0 0 0 12.6 30.408l5.748 5.748a8 8 0 0 0 5.652 2.344h67.683a79.419 79.419 0 0 0 -3.283 16zm-56.4-80v48h-4.686l-3.405-3.4a26.83 26.83 0 0 1 -7.909-19.1 27.133 27.133 0 0 1 10.8-21.6zm64 48h-48v-32h28.686l19.314 19.313zm72 88a48.069 48.069 0 0 1 -47.321-40h16.334a32 32 0 0 0 61.974 0h16.334a48.069 48.069 0 0 1 -47.321 40zm-13.835-40h27.67a15.963 15.963 0 0 1 -27.67 0zm-49.665-16a64 64 0 0 1 127 0z"/><path d="m128 360a8 8 0 0 0 -8 8v24a8 8 0 0 0 16 0v-24a8 8 0 0 0 -8-8z"/><path d="m160 360a8 8 0 0 0 -8 8v24a8 8 0 0 0 16 0v-24a8 8 0 0 0 -8-8z"/><path d="m192 360a8 8 0 0 0 -8 8v24a8 8 0 0 0 16 0v-24a8 8 0 0 0 -8-8z"/><path d="m144 248v-24a8 8 0 0 0 -16 0v16h-48v-16a8 8 0 0 0 -16 0v24a8 8 0 0 0 8 8h64a8 8 0 0 0 8-8z"/></g></svg>